<svg width="76" height="76" viewBox="0 0 76 76" fill="none" xmlns="http://www.w3.org/2000/svg">
<rect width="76" height="76" rx="22" fill="#39B54A" fill-opacity="0.1"/>
<path opacity="0.4" d="M35.9404 18H31.9404C21.9404 18 17.9404 22 17.9404 32V44C17.9404 54 21.9404 58 31.9404 58H43.9404C53.9404 58 57.9404 54 57.9404 44V40" stroke="#39B54A" stroke-width="2.5" stroke-linecap="round" stroke-linejoin="round"/>
<path d="M57.7599 21.12C55.2999 27.26 49.1199 35.62 43.9599 39.76L40.7999 42.28C40.3999 42.58 39.9999 42.82 39.5399 43C39.5399 42.7 39.5199 42.4 39.4799 42.08C39.2999 40.74 38.6999 39.48 37.6199 38.42C36.5199 37.32 35.1999 36.7 33.8399 36.52C33.5199 36.5 33.1999 36.48 32.8799 36.5C33.0599 36 33.3199 35.54 33.6599 35.16L36.1799 32C40.3199 26.84 48.6999 20.62 54.8199 18.16C55.7599 17.8 56.6799 18.08 57.2599 18.66C57.8599 19.26 58.1399 20.18 57.7599 21.12Z" stroke="#39B54A" stroke-width="2.5" stroke-linecap="round" stroke-linejoin="round"/>
<path d="M39.5602 42.98C39.5602 44.74 38.8802 46.42 37.6202 47.7C36.6402 48.68 35.3202 49.36 33.7402 49.56L29.8002 49.98C27.6602 50.22 25.8202 48.4 26.0602 46.22L26.4802 42.28C26.8602 38.78 29.7802 36.54 32.9002 36.48C33.2202 36.46 33.5402 36.48 33.8602 36.5C35.2202 36.68 36.5402 37.3 37.6402 38.4C38.7202 39.48 39.3202 40.72 39.5002 42.06C39.5402 42.38 39.5602 42.7 39.5602 42.98Z" stroke="#39B54A" stroke-width="2.5" stroke-linecap="round" stroke-linejoin="round"/>
<path opacity="0.4" d="M45.6396 37.96C45.6396 33.78 42.2596 30.38 38.0596 30.38" stroke="#39B54A" stroke-width="2.5" stroke-linecap="round" stroke-linejoin="round"/>
</svg>
