<svg width="208" height="49" viewBox="0 0 208 49" fill="none" xmlns="http://www.w3.org/2000/svg">
<g clip-path="url(#clip0_631_118)" filter="url(#filter0_d_631_118)">
<path d="M58.1065 13.2078H60.2807L66.3646 27.3301H63.4922L62.1757 24.0988H56.052L54.7754 27.3301H51.9629L58.1065 13.2078ZM61.298 21.9445L59.1238 16.1998L56.9097 21.9445H61.298Z" fill="#D3D3D3"/>
<path d="M69.0605 13.2078H71.9528L75.8026 23.8794L79.7719 13.2078H82.4851L76.78 27.3301H74.6059L69.0605 13.2078Z" fill="#D3D3D3"/>
<path d="M91.4666 13.2078H93.6413L99.7246 27.3301H96.8524L95.5361 24.0988H89.4122L88.1354 27.3301H85.3232L91.4666 13.2078ZM94.6582 21.9445L92.4842 16.1998L90.27 21.9445H94.6582Z" fill="#D3D3D3"/>
<path d="M105.283 13.2078H107.797V25.0562H113.8V27.3301H105.283V13.2078Z" fill="#D3D3D3"/>
<path d="M124.184 13.2078H126.359L132.442 27.3301H129.57L128.254 24.0988H122.13L120.854 27.3301H118.041L124.184 13.2078ZM127.376 21.9445L125.202 16.1998L122.988 21.9445H127.376Z" fill="#D3D3D3"/>
<path d="M138.001 13.2078H141.332L148.174 23.6998H148.214V13.2078H150.727V27.3301H147.536L140.554 16.499H140.514V27.3301H138.001V13.2078Z" fill="#D3D3D3"/>
<path d="M167.56 16.5189C167.042 15.9603 166.537 15.588 166.045 15.4019C165.566 15.2157 165.08 15.1226 164.589 15.1226C163.857 15.1226 163.192 15.2556 162.594 15.5215C162.009 15.7742 161.504 16.1332 161.078 16.5987C160.653 17.0508 160.32 17.5827 160.08 18.1944C159.854 18.8061 159.741 19.4643 159.741 20.1692C159.741 20.9272 159.854 21.6253 160.08 22.2636C160.32 22.9019 160.653 23.4538 161.078 23.9192C161.504 24.3846 162.009 24.7503 162.594 25.0163C163.192 25.2823 163.857 25.4152 164.589 25.4152C165.16 25.4152 165.712 25.2823 166.244 25.0163C166.789 24.737 167.294 24.2982 167.76 23.6998L169.835 25.1759C169.196 26.0535 168.418 26.6918 167.5 27.0908C166.583 27.4897 165.606 27.6891 164.569 27.6891C163.478 27.6891 162.474 27.5163 161.557 27.1705C160.653 26.8115 159.868 26.3128 159.203 25.6745C158.551 25.0229 158.039 24.245 157.667 23.3407C157.294 22.4365 157.108 21.4325 157.108 20.3287C157.108 19.1984 157.294 18.1745 157.667 17.2569C158.039 16.3261 158.551 15.5349 159.203 14.8833C159.868 14.2317 160.653 13.733 161.557 13.3872C162.474 13.0282 163.478 12.8486 164.569 12.8486C165.526 12.8486 166.41 13.0215 167.222 13.3673C168.046 13.6997 168.81 14.2716 169.515 15.0827L167.56 16.5189Z" fill="#D3D3D3"/>
<path d="M175.511 13.2078H178.024V18.8328H184.626V13.2078H187.139V27.3301H184.626V21.1067H178.024V27.3301H175.511V13.2078Z" fill="#D3D3D3"/>
<path d="M194.285 13.2078H203.64V15.4817H196.799V18.9525H203.281V21.2264H196.799V25.0562H204V27.3301H194.285V13.2078Z" fill="#D3D3D3"/>
<path fill-rule="evenodd" clip-rule="evenodd" d="M24.2665 40.5135C35.4539 40.5135 44.5232 31.4442 44.5232 20.2567C44.5232 9.06925 35.4539 0 24.2665 0C13.079 0 4.00977 9.06925 4.00977 20.2567C4.00977 31.4442 13.079 40.5135 24.2665 40.5135ZM18.1458 29.4339H13.3938C12.2671 29.4339 11.7037 29.4339 11.3663 29.2157C11.0017 28.98 10.7717 28.5843 10.7473 28.151C10.7247 27.7501 11.0037 27.2612 11.5618 26.2837L11.562 26.2833L21.9663 8.05604C22.5326 7.06393 22.8158 6.56788 23.1761 6.38322C23.5652 6.18373 24.0268 6.18339 24.4163 6.38234C24.7768 6.56644 25.0606 7.06212 25.6283 8.05335L28.028 12.243L28.028 12.2431C28.4409 12.9638 28.6472 13.3242 28.738 13.7044C28.8369 14.1184 28.837 14.5497 28.7386 14.9636C28.6482 15.344 28.442 15.7046 28.0298 16.4258L21.8081 27.3099C21.3899 28.0416 21.1807 28.4075 20.8942 28.681C20.5823 28.9786 20.2041 29.1981 19.7907 29.321C19.4109 29.4339 18.9892 29.4339 18.1458 29.4339ZM35.0997 29.4339H29.5902C28.4533 29.4339 27.8848 29.4339 27.5464 29.2138C27.1807 28.976 26.9513 28.5774 26.9297 28.1421C26.9097 27.7392 27.1958 27.2483 27.768 26.2667L30.5181 21.5483C31.0831 20.5791 31.3657 20.0946 31.7233 19.913C32.1098 19.7168 32.5668 19.7165 32.9537 19.9121C33.3117 20.0931 33.5948 20.5773 34.161 21.5455L34.1611 21.5458L36.9204 26.2641C37.4948 27.2463 37.782 27.7374 37.7624 28.1406C37.7412 28.5763 37.5119 28.9754 37.1461 29.2136C36.8076 29.4339 36.2383 29.4339 35.0997 29.4339Z" fill="#D3D3D3"/>
</g>
<defs>
<filter id="filter0_d_631_118" x="0" y="0" width="208" height="48.5134" filterUnits="userSpaceOnUse" color-interpolation-filters="sRGB">
<feFlood flood-opacity="0" result="BackgroundImageFix"/>
<feColorMatrix in="SourceAlpha" type="matrix" values="0 0 0 0 0 0 0 0 0 0 0 0 0 0 0 0 0 0 127 0" result="hardAlpha"/>
<feOffset dy="4"/>
<feGaussianBlur stdDeviation="2"/>
<feComposite in2="hardAlpha" operator="out"/>
<feColorMatrix type="matrix" values="0 0 0 0 0 0 0 0 0 0 0 0 0 0 0 0 0 0 0.25 0"/>
<feBlend mode="normal" in2="BackgroundImageFix" result="effect1_dropShadow_631_118"/>
<feBlend mode="normal" in="SourceGraphic" in2="effect1_dropShadow_631_118" result="shape"/>
</filter>
<clipPath id="clip0_631_118">
<rect width="200" height="40.5135" fill="white" transform="translate(4)"/>
</clipPath>
</defs>
</svg>
