<svg width="1440" height="283" viewBox="0 0 1440 283" fill="none" xmlns="http://www.w3.org/2000/svg">
<g clip-path="url(#clip0_58_1973)">
<rect width="1440" height="297" fill="#0E243A"/>
<path d="M505.572 546.892C635.482 625.517 926.043 726.719 1049 502.525C1171.96 278.331 1010.14 52.1161 913.863 -32.9671" stroke="#828282" stroke-width="0.2"/>
<path d="M473.158 519.461C603.068 598.086 893.629 699.287 1016.59 475.094C1139.55 250.9 977.729 24.6847 881.449 -60.3985" stroke="#828282" stroke-width="0.2"/>
<path d="M440.745 492.032C570.655 570.657 861.216 671.859 984.175 447.665C1107.13 223.471 945.316 -2.74398 849.036 -87.8273" stroke="#828282" stroke-width="0.2"/>
<path d="M408.331 464.6C538.242 543.225 828.803 644.427 951.762 420.233C1074.72 196.039 912.903 -30.1759 816.623 -115.259" stroke="#828282" stroke-width="0.2"/>
<path d="M375.918 437.172C505.829 515.797 796.39 616.998 919.349 392.804C1042.31 168.611 880.489 -57.6043 784.21 -142.688" stroke="#828282" stroke-width="0.2"/>
<path d="M343.504 409.741C473.415 488.366 763.976 589.567 886.935 365.373C1009.89 141.179 848.075 -85.0355 751.796 -170.119" stroke="#828282" stroke-width="0.2"/>
<path d="M311.09 382.309C441.001 460.934 731.562 562.135 854.521 337.942C977.48 113.748 815.661 -112.467 719.382 -197.55" stroke="#828282" stroke-width="0.2"/>
<path d="M278.677 354.88C408.588 433.505 699.149 534.707 822.108 310.513C945.067 86.3191 783.248 -139.896 686.969 -224.979" stroke="#828282" stroke-width="0.2"/>
<path d="M246.262 327.446C376.173 406.071 666.734 507.273 789.693 283.079C912.652 58.8851 750.833 -167.33 654.554 -252.413" stroke="#828282" stroke-width="0.2"/>
<path d="M213.849 300.017C343.76 378.642 634.321 479.844 757.28 255.65C880.239 31.4561 718.42 -194.759 622.141 -279.842" stroke="#828282" stroke-width="0.2"/>
<path d="M181.436 272.586C311.347 351.211 601.907 452.412 724.867 228.218C847.826 4.02446 686.007 -222.191 589.728 -307.274" stroke="#828282" stroke-width="0.2"/>
<path d="M149.022 245.157C278.932 323.782 569.493 424.984 692.453 200.79C815.412 -23.4038 653.593 -249.619 557.314 -334.702" stroke="#828282" stroke-width="0.2"/>
<path d="M116.609 217.726C246.519 296.351 537.08 397.552 660.04 173.358C782.999 -50.8354 621.18 -277.05 524.9 -362.134" stroke="#828282" stroke-width="0.2"/>
<path d="M84.1948 190.294C214.105 268.919 504.666 370.121 627.626 145.927C750.585 -78.2668 588.766 -304.482 492.486 -389.565" stroke="#828282" stroke-width="0.2"/>
<path d="M51.7817 162.866C181.692 241.491 472.253 342.692 595.212 118.498C718.172 -105.696 556.353 -331.91 460.073 -416.994" stroke="#828282" stroke-width="0.2"/>
<path d="M19.3676 135.434C149.278 214.059 439.839 315.261 562.798 91.0669C685.758 -133.127 523.939 -359.342 427.659 -444.425" stroke="#828282" stroke-width="0.2"/>
<path d="M-13.0445 108.005C116.866 186.63 407.427 287.832 530.386 63.6379C653.346 -160.556 491.527 -386.771 395.247 -471.854" stroke="#828282" stroke-width="0.2"/>
<path d="M-45.4595 80.5742C84.451 159.199 375.012 260.401 497.971 36.2068C620.931 -187.987 459.111 -414.202 362.832 -499.285" stroke="#828282" stroke-width="0.2"/>
<path d="M-77.8736 53.1428C52.037 131.768 342.598 232.969 465.557 8.77539C588.516 -215.418 426.697 -441.633 330.418 -526.717" stroke="#828282" stroke-width="0.2"/>
<path d="M-110.286 25.7139C19.6248 104.339 310.186 205.54 433.145 -18.6536C556.104 -242.847 394.285 -469.062 298.006 -554.146" stroke="#828282" stroke-width="0.2"/>
</g>
<defs>
<clipPath id="clip0_58_1973">
<rect width="1440" height="297" fill="white"/>
</clipPath>
</defs>
</svg>
