<svg width="84" height="84" viewBox="0 0 84 84" fill="none" xmlns="http://www.w3.org/2000/svg">
<g filter="url(#filter0_d_58_2043)">
<rect x="4" width="76" height="76" rx="22" fill="#39B54A" fill-opacity="0.1"/>
<path opacity="0.4" d="M36 40C34.68 40.66 33.58 41.64 32.76 42.86C32.3 43.56 32.3 44.44 32.76 45.14C33.58 46.36 34.68 47.34 36 48" stroke="#39B54A" stroke-width="2.5" stroke-linecap="round" stroke-linejoin="round"/>
<path opacity="0.4" d="M48.4199 40C49.7399 40.66 50.8399 41.64 51.6599 42.86C52.1199 43.56 52.1199 44.44 51.6599 45.14C50.8399 46.36 49.7399 47.34 48.4199 48" stroke="#39B54A" stroke-width="2.5" stroke-linecap="round" stroke-linejoin="round"/>
<path d="M36 58H48C58 58 62 54 62 44V32C62 22 58 18 48 18H36C26 18 22 22 22 32V44C22 54 26 58 36 58Z" stroke="#39B54A" stroke-width="2.5" stroke-linecap="round" stroke-linejoin="round"/>
<path opacity="0.4" d="M22.46 30.02L60.9 30" stroke="#39B54A" stroke-width="2.5" stroke-linecap="round" stroke-linejoin="round"/>
</g>
<defs>
<filter id="filter0_d_58_2043" x="0" y="0" width="84" height="84" filterUnits="userSpaceOnUse" color-interpolation-filters="sRGB">
<feFlood flood-opacity="0" result="BackgroundImageFix"/>
<feColorMatrix in="SourceAlpha" type="matrix" values="0 0 0 0 0 0 0 0 0 0 0 0 0 0 0 0 0 0 127 0" result="hardAlpha"/>
<feOffset dy="4"/>
<feGaussianBlur stdDeviation="2"/>
<feComposite in2="hardAlpha" operator="out"/>
<feColorMatrix type="matrix" values="0 0 0 0 0 0 0 0 0 0 0 0 0 0 0 0 0 0 0.25 0"/>
<feBlend mode="normal" in2="BackgroundImageFix" result="effect1_dropShadow_58_2043"/>
<feBlend mode="normal" in="SourceGraphic" in2="effect1_dropShadow_58_2043" result="shape"/>
</filter>
</defs>
</svg>
