<?xml version="1.0" encoding="UTF-8" standalone="no"?>
<!DOCTYPE svg PUBLIC "-//W3C//DTD SVG 1.1//EN" "http://www.w3.org/Graphics/SVG/1.1/DTD/svg11.dtd">
<!-- Created with Vectornator (http://vectornator.io/) -->
<svg height="100%" stroke-miterlimit="10" style="fill-rule:nonzero;clip-rule:evenodd;stroke-linecap:round;stroke-linejoin:round;" version="1.1" viewBox="0 0 144 144" width="100%" xml:space="preserve" xmlns="http://www.w3.org/2000/svg" xmlns:vectornator="http://vectornator.io" xmlns:xlink="http://www.w3.org/1999/xlink">
<defs/>
<clipPath id="ArtboardFrame">
<rect height="144" width="144" x="0" y="0"/>
</clipPath>
<g clip-path="url(#ArtboardFrame)" id="Untitled" vectornator:layerName="Untitled">
<path d="M20.0416 7.93752L123.161 7.93752C134.23 7.93752 143.203 15.8118 143.203 25.5252L143.203 118.475C143.203 128.188 134.23 136.062 123.161 136.062L20.0416 136.062C8.97293 136.062 0 128.188 0 118.475L0 25.5252C0 15.8118 8.97293 7.93752 20.0416 7.93752Z" fill="#ebf5eb" fill-rule="evenodd" opacity="1" stroke="none"/>
<path d="M111.854 39.0384L80.6306 21.0079C75.2941 17.9295 68.723 17.9295 63.3866 21.0079L32.1631 39.0384C26.8266 42.1168 23.5368 47.8084 23.5368 53.9651L23.5368 90.0261C23.5368 96.1832 26.8266 101.875 32.1546 104.962L63.3781 122.992C68.7145 126.07 75.2857 126.07 80.6221 122.992L111.845 104.962C117.182 101.883 120.463 96.1916 120.463 90.0261L120.463 53.9651C120.48 47.8084 117.19 42.1168 111.854 39.0384ZM72.0128 114.51C48.536 114.51 29.4991 95.4728 29.4991 71.9956C29.4991 48.5188 48.5275 29.4819 72.0128 29.4819C95.4981 29.4819 114.526 48.5188 114.526 71.9956C114.526 95.4728 95.4896 114.51 72.0128 114.51Z" fill="#3ab54b" fill-rule="evenodd" opacity="1" stroke="none"/>
<path d="M92.544 53.2303L81.8289 53.2303L81.8289 64.2329L58.8764 64.2329L58.8764 53.2303L48.1613 53.2303L48.1613 64.2329L40.1778 64.2329L40.1778 74.9142L48.1613 74.9142L48.1613 87.8451C48.1613 91.3886 48.9901 94.0698 50.6477 95.8796C52.3053 97.6894 54.9016 98.5943 58.4451 98.5943L76.9577 98.5943L76.9577 88.2679L61.1767 88.2679C60.4241 88.2679 59.849 87.9973 59.46 87.4645C59.0709 86.9317 58.8764 86.1706 58.8764 85.1811L58.8764 74.9142L81.8289 74.9142L81.8289 87.8451C81.8289 91.3886 82.6577 94.0698 84.3153 95.8796C85.9729 97.6894 88.5692 98.5943 92.1127 98.5943L103.064 98.5943L103.064 88.2679L94.8528 88.2679C94.1001 88.2679 93.5251 87.9973 93.136 87.4645C92.747 86.9317 92.5525 86.1706 92.5525 85.1811L92.5525 74.9142L103.073 74.9142L103.073 64.2329L92.544 64.2329L92.544 53.2303Z" fill="#aadbad" fill-rule="evenodd" opacity="1" stroke="none"><animate attributeName="opacity" dur="3s" repeatCount="indefinite" values="0;1;0" /></path>
</g>
</svg>
