<svg width="53" height="53" viewBox="0 0 53 53" fill="none" xmlns="http://www.w3.org/2000/svg">
<path d="M46.75 26.5C46.75 37.6838 37.6838 46.75 26.5 46.75C15.3162 46.75 6.24999 37.6838 6.25 26.5C6.25 15.3162 15.3162 6.25 26.5 6.25C37.6838 6.25001 46.75 15.3162 46.75 26.5Z" stroke="#040457" stroke-width="0.5"/>
<path d="M52 26.5C52 40.5833 40.5833 52 26.5 52C12.4167 52 0.999993 40.5833 0.999995 26.5C0.999998 12.4167 12.4167 1 26.5 1C40.5833 1.00001 52 12.4167 52 26.5Z" stroke="#040457" stroke-width="2"/>
<path d="M18.008 29.066L18.008 22.514C18.008 20.558 18.986 19.58 20.942 19.58L23.462 19.58C25.418 19.58 26.396 20.558 26.396 22.514L26.396 29.066C26.396 31.022 25.418 32 23.462 32L20.942 32C18.986 32 18.008 31.022 18.008 29.066ZM20.222 29.228C20.222 29.744 20.48 30.002 20.996 30.002L23.408 30.002C23.924 30.002 24.182 29.744 24.182 29.228L24.182 22.352C24.182 21.836 23.924 21.578 23.408 21.578L20.996 21.578C20.48 21.578 20.222 21.836 20.222 22.352L20.222 29.228ZM28.9182 32L28.9182 30.002L31.7982 30.002L31.7982 21.578L29.4402 21.578L29.4402 20.408L30.5022 19.58L33.9942 19.58L33.9942 30.002L36.5862 30.002L36.5862 32L28.9182 32Z" fill="#0000B6"/>
</svg>
