<svg width="53" height="53" viewBox="0 0 53 53" fill="none" xmlns="http://www.w3.org/2000/svg">
<path d="M46.75 26.5C46.75 37.6838 37.6838 46.75 26.5 46.75C15.3162 46.75 6.24999 37.6838 6.25 26.5C6.25 15.3162 15.3162 6.25 26.5 6.25C37.6838 6.25001 46.75 15.3162 46.75 26.5Z" stroke="#333333" stroke-width="0.5"/>
<path d="M52.9 26.5C52.9 41.0803 41.0803 52.9 26.5 52.9C11.9197 52.9 0.0999928 41.0803 0.0999954 26.5C0.0999979 11.9197 11.9197 0.100002 26.5 0.100005C41.0803 0.100007 52.9 11.9197 52.9 26.5Z" stroke="#828282" stroke-width="0.2"/>
<path d="M18.1737 29.156L18.1737 22.424C18.1737 20.528 19.1217 19.58 21.0177 19.58L23.5737 19.58C25.4697 19.58 26.4177 20.528 26.4177 22.424L26.4177 29.156C26.4177 31.052 25.4697 32 23.5737 32L21.0177 32C19.1217 32 18.1737 31.052 18.1737 29.156ZM20.0097 29.336C20.0097 30.008 20.3517 30.344 21.0357 30.344L23.5557 30.344C24.2397 30.344 24.5817 30.008 24.5817 29.336L24.5817 22.244C24.5817 21.572 24.2397 21.236 23.5557 21.236L21.0357 21.236C20.3517 21.236 20.0097 21.572 20.0097 22.244L20.0097 29.336ZM28.58 21.236L28.58 19.58L36.824 19.58L36.824 22.946L32.072 32L30.434 32L30.2 31.586L34.988 22.55L34.988 21.236L28.58 21.236Z" fill="#4F4F4F"/>
</svg>
