<svg width="1283" height="339" viewBox="0 0 1283 339" fill="none" xmlns="http://www.w3.org/2000/svg">
<path opacity="0.6" d="M0.208687 339H-5.79131V345H0.208687V339ZM0.208687 0.899971V-5.10003H-5.79131V0.899971H0.208687ZM70.7687 275.3H64.7687V281.3H70.7687V275.3ZM70.7687 64.6V58.6H64.7687V64.6H70.7687ZM6.20869 339V0.899971H-5.79131V339H6.20869ZM0.208687 6.89997H128.589V-5.10003H0.208687V6.89997ZM128.589 6.89997C173.724 6.89997 206.473 18.1797 227.981 39.6876C249.489 61.1955 260.769 93.9449 260.769 139.08H272.769C272.769 92.0951 261.018 55.7544 236.466 31.2023C211.914 6.65025 175.574 -5.10003 128.589 -5.10003V6.89997ZM260.769 139.08V200.82H272.769V139.08H260.769ZM260.769 200.82C260.769 245.955 249.489 278.704 227.981 300.212C206.473 321.72 173.724 333 128.589 333V345C175.574 345 211.914 333.25 236.466 308.698C261.018 284.146 272.769 247.805 272.769 200.82H260.769ZM128.589 333H0.208687V345H128.589V333ZM70.7687 281.3H132.509V269.3H70.7687V281.3ZM132.509 281.3C154.667 281.3 172.388 275.756 184.526 263.618C196.665 251.479 202.209 233.758 202.209 211.6H190.209C190.209 231.908 185.136 246.038 176.041 255.132C166.946 264.227 152.817 269.3 132.509 269.3V281.3ZM202.209 211.6V128.3H190.209V211.6H202.209ZM202.209 128.3C202.209 106.142 196.665 88.4211 184.526 76.2824C172.388 64.1436 154.667 58.6 132.509 58.6V70.6C152.817 70.6 166.946 75.673 176.041 84.7676C185.136 93.8622 190.209 107.992 190.209 128.3H202.209ZM132.509 58.6H70.7687V70.6H132.509V58.6ZM64.7687 64.6V275.3H76.7687V64.6H64.7687ZM325.802 325.77L320.07 323.998L319.227 326.724L320.81 329.098L325.802 325.77ZM426.252 0.899971V-5.10003H421.827L420.52 -0.87244L426.252 0.899971ZM534.052 0.899971L539.784 -0.87244L538.477 -5.10003H534.052V0.899971ZM634.502 325.77L639.495 329.098L641.077 326.724L640.234 323.998L634.502 325.77ZM625.682 339V345H628.893L630.675 342.328L625.682 339ZM566.882 339L561.135 340.724L562.418 345H566.882V339ZM546.302 270.4L552.049 268.676L550.766 264.4H546.302V270.4ZM414.002 270.4V264.4H409.538L408.255 268.676L414.002 270.4ZM393.422 339V345H397.886L399.169 340.724L393.422 339ZM334.622 339L329.63 342.328L331.411 345H334.622V339ZM433.112 206.7L427.371 204.958L425.021 212.7H433.112V206.7ZM527.192 206.7V212.7H535.283L532.934 204.958L527.192 206.7ZM484.072 64.6L489.814 62.8578L488.522 58.6H484.072V64.6ZM476.232 64.6V58.6H471.783L470.491 62.8578L476.232 64.6ZM331.534 327.542L431.984 2.67238L420.52 -0.87244L320.07 323.998L331.534 327.542ZM426.252 6.89997H534.052V-5.10003H426.252V6.89997ZM528.32 2.67238L628.77 327.542L640.234 323.998L539.784 -0.87244L528.32 2.67238ZM629.51 322.442L620.69 335.672L630.675 342.328L639.495 329.098L629.51 322.442ZM625.682 333H566.882V345H625.682V333ZM572.629 337.276L552.049 268.676L540.555 272.124L561.135 340.724L572.629 337.276ZM546.302 264.4H414.002V276.4H546.302V264.4ZM408.255 268.676L387.675 337.276L399.169 340.724L419.749 272.124L408.255 268.676ZM393.422 333H334.622V345H393.422V333ZM339.615 335.672L330.795 322.442L320.81 329.098L329.63 342.328L339.615 335.672ZM433.112 212.7H527.192V200.7H433.112V212.7ZM532.934 204.958L489.814 62.8578L478.331 66.3422L521.451 208.442L532.934 204.958ZM484.072 58.6H476.232V70.6H484.072V58.6ZM470.491 62.8578L427.371 204.958L438.854 208.442L481.974 66.3422L470.491 62.8578ZM703.11 339H697.11V345H703.11V339ZM703.11 0.899971V-5.10003H697.11V0.899971H703.11ZM773.67 231.2V225.2H767.67V231.2H773.67ZM773.67 339V345H779.67V339H773.67ZM773.67 167.5H767.67V173.5H773.67V167.5ZM773.67 64.6V58.6H767.67V64.6H773.67ZM709.11 339V0.899971H697.11V339H709.11ZM703.11 6.89997H867.75V-5.10003H703.11V6.89997ZM867.75 6.89997C894.265 6.89997 913.049 13.5247 925.247 25.7226C937.445 37.9205 944.07 56.7049 944.07 83.22H956.07C956.07 54.8551 948.975 32.4794 933.733 17.2373C918.49 1.99525 896.115 -5.10003 867.75 -5.10003V6.89997ZM944.07 83.22V148.88H956.07V83.22H944.07ZM944.07 148.88C944.07 175.395 937.445 194.179 925.247 206.377C913.049 218.575 894.265 225.2 867.75 225.2V237.2C896.115 237.2 918.49 230.105 933.733 214.863C948.975 199.621 956.07 177.245 956.07 148.88H944.07ZM867.75 225.2H773.67V237.2H867.75V225.2ZM767.67 231.2V339H779.67V231.2H767.67ZM773.67 333H703.11V345H773.67V333ZM773.67 173.5H864.81V161.5H773.67V173.5ZM864.81 173.5C870.635 173.5 876.105 172.04 880.078 168.068C884.05 164.096 885.51 158.625 885.51 152.8H873.51C873.51 156.775 872.52 158.654 871.592 159.582C870.664 160.51 868.785 161.5 864.81 161.5V173.5ZM885.51 152.8V79.3H873.51V152.8H885.51ZM885.51 79.3C885.51 73.4751 884.05 68.0044 880.078 64.0324C876.105 60.0603 870.635 58.6 864.81 58.6V70.6C868.785 70.6 870.664 71.5897 871.592 72.5176C872.52 73.4456 873.51 75.3249 873.51 79.3H885.51ZM864.81 58.6H773.67V70.6H864.81V58.6ZM767.67 64.6V167.5H779.67V64.6H767.67ZM1035.18 339H1029.18V345H1035.18V339ZM1035.18 0.899971V-5.10003H1029.18V0.899971H1035.18ZM1105.74 231.2V225.2H1099.74V231.2H1105.74ZM1105.74 339V345H1111.74V339H1105.74ZM1105.74 167.5H1099.74V173.5H1105.74V167.5ZM1105.74 64.6V58.6H1099.74V64.6H1105.74ZM1041.18 339V0.899971H1029.18V339H1041.18ZM1035.18 6.89997H1199.82V-5.10003H1035.18V6.89997ZM1199.82 6.89997C1226.34 6.89997 1245.12 13.5247 1257.32 25.7226C1269.52 37.9205 1276.14 56.7049 1276.14 83.22H1288.14C1288.14 54.8551 1281.05 32.4794 1265.8 17.2373C1250.56 1.99525 1228.19 -5.10003 1199.82 -5.10003V6.89997ZM1276.14 83.22V148.88H1288.14V83.22H1276.14ZM1276.14 148.88C1276.14 175.395 1269.52 194.179 1257.32 206.377C1245.12 218.575 1226.34 225.2 1199.82 225.2V237.2C1228.19 237.2 1250.56 230.105 1265.8 214.863C1281.05 199.621 1288.14 177.245 1288.14 148.88H1276.14ZM1199.82 225.2H1105.74V237.2H1199.82V225.2ZM1099.74 231.2V339H1111.74V231.2H1099.74ZM1105.74 333H1035.18V345H1105.74V333ZM1105.74 173.5H1196.88V161.5H1105.74V173.5ZM1196.88 173.5C1202.71 173.5 1208.18 172.04 1212.15 168.068C1216.12 164.096 1217.58 158.625 1217.58 152.8H1205.58C1205.58 156.775 1204.59 158.654 1203.66 159.582C1202.74 160.51 1200.86 161.5 1196.88 161.5V173.5ZM1217.58 152.8V79.3H1205.58V152.8H1217.58ZM1217.58 79.3C1217.58 73.4751 1216.12 68.0044 1212.15 64.0324C1208.18 60.0603 1202.71 58.6 1196.88 58.6V70.6C1200.86 70.6 1202.74 71.5897 1203.66 72.5176C1204.59 73.4456 1205.58 75.3249 1205.58 79.3H1217.58ZM1196.88 58.6H1105.74V70.6H1196.88V58.6ZM1099.74 64.6V167.5H1111.74V64.6H1099.74Z" fill="#25517C"/>
</svg>
