<svg width="127" height="48" viewBox="0 0 127 48" fill="none" xmlns="http://www.w3.org/2000/svg">
<rect width="127" height="48" rx="3" fill="#39B54A" fill-opacity="0.3"/>
<path d="M54.928 26.472L54.928 24.648L56.544 24.648L56.544 26.632C56.544 27.2293 56.848 27.528 57.456 27.528L59.856 27.528C60.464 27.528 60.768 27.2293 60.768 26.632L60.768 19.432L57.328 19.432L57.328 17.96L62.384 17.96L62.384 26.472C62.384 28.1573 61.5467 29 59.872 29L57.44 29C55.7653 29 54.928 28.1573 54.928 26.472ZM64.8231 26.536L64.8231 23.096C64.8231 21.464 65.6391 20.648 67.2711 20.648L69.5111 20.648C71.1431 20.648 71.9591 21.464 71.9591 23.096L71.9591 26.536C71.9591 28.1787 71.1431 29 69.5111 29L67.2711 29C65.6391 29 64.8231 28.1787 64.8231 26.536ZM66.3751 26.696C66.3751 27.3253 66.6898 27.64 67.3191 27.64L69.4791 27.64C70.0978 27.64 70.4071 27.3253 70.4071 26.696L70.4071 22.936C70.4071 22.3173 70.0978 22.008 69.4791 22.008L67.3191 22.008C66.6898 22.008 66.3751 22.3173 66.3751 22.936L66.3751 26.696ZM74.2621 19.144L74.2621 17.448L75.9261 17.448L75.9261 19.144L74.2621 19.144ZM74.3261 29L74.3261 20.648L75.8781 20.648L75.8781 29L74.3261 29ZM78.373 29L78.373 20.648L82.901 20.648C84.533 20.648 85.349 21.464 85.349 23.096L85.349 29L83.797 29L83.797 22.936C83.797 22.3173 83.4877 22.008 82.869 22.008L79.925 22.008L79.925 29L78.373 29ZM91.687 26.472L91.687 17.96L93.303 17.96L93.303 26.632C93.303 27.2293 93.607 27.528 94.215 27.528L97.575 27.528C98.183 27.528 98.487 27.2293 98.487 26.632L98.487 17.96L100.103 17.96L100.103 26.472C100.103 28.1573 99.2657 29 97.591 29L94.199 29C92.5243 29 91.687 28.1573 91.687 26.472ZM102.35 28.456L102.35 27.64L106.046 27.64C106.675 27.64 106.99 27.32 106.99 26.68C106.99 26.0187 106.734 25.6453 106.222 25.56L104.382 25.256C103.027 25.0213 102.35 24.2747 102.35 23.016C102.35 21.4373 103.171 20.648 104.814 20.648L107.422 20.648L108.158 21.192L108.158 22.008L104.846 22.008C104.206 22.008 103.886 22.328 103.886 22.968C103.886 23.5653 104.153 23.912 104.686 24.008L106.542 24.312C107.875 24.536 108.542 25.304 108.542 26.616C108.542 28.2053 107.715 29 106.062 29L103.086 29L102.35 28.456Z" fill="#F2F2F2"/>
<g clip-path="url(#clip0_615_219)">
<path d="M35.0524 21.337C34.1387 21.337 33.4174 22.1225 33.4174 23.1003C33.4174 24.0782 34.1548 24.8636 35.0524 24.8636C35.9661 24.8636 36.6875 24.0782 36.6875 23.1003C36.6875 22.1225 35.9501 21.337 35.0524 21.337ZM29.2015 21.337C28.2878 21.337 27.5664 22.1225 27.5664 23.1003C27.5664 24.0782 28.3038 24.8636 29.2015 24.8636C30.1152 24.8636 30.8365 24.0782 30.8365 23.1003C30.8526 22.1225 30.1152 21.337 29.2015 21.337Z" fill="#7289DA"/>
<path d="M42.8436 8H21.3633C19.5519 8 18.0771 9.47476 18.0771 11.2862V32.7664C18.0771 34.5778 19.5519 36.0526 21.3633 36.0526H39.5414L38.6918 33.1191L40.7436 35.0106L42.6833 36.79L46.1458 39.7876V11.2862C46.1297 9.47476 44.655 8 42.8436 8V8ZM36.656 28.7589C36.656 28.7589 36.0789 28.0696 35.598 27.4765C37.6979 26.8834 38.4994 25.585 38.4994 25.585C37.8422 26.0178 37.217 26.3223 36.656 26.5307C35.8545 26.8674 35.085 27.0758 34.3316 27.22C32.7927 27.5086 31.3821 27.4284 30.1798 27.204C29.2661 27.0277 28.4806 26.7872 27.8234 26.5147C27.4547 26.3704 27.054 26.1941 26.6532 25.9697C26.6051 25.9376 26.557 25.9216 26.509 25.8895C26.4769 25.8735 26.4609 25.8575 26.4448 25.8575C26.1563 25.6972 25.996 25.585 25.996 25.585C25.996 25.585 26.7654 26.8513 28.8012 27.4605C28.3203 28.0696 27.7272 28.7749 27.7272 28.7749C24.1846 28.6627 22.8381 26.3544 22.8381 26.3544C22.8381 21.2408 25.1464 17.089 25.1464 17.089C27.4547 15.3738 29.6348 15.4219 29.6348 15.4219L29.7951 15.6143C26.9097 16.4318 25.5952 17.6982 25.5952 17.6982C25.5952 17.6982 25.9479 17.5058 26.541 17.2493C28.2562 16.4959 29.6188 16.3036 30.1798 16.2394C30.276 16.2234 30.3562 16.2074 30.4523 16.2074C31.4302 16.0791 32.5362 16.0471 33.6904 16.1753C35.2133 16.3517 36.8483 16.8005 38.5155 17.6982C38.5155 17.6982 37.2491 16.4959 34.524 15.6784L34.7484 15.4219C34.7484 15.4219 36.9445 15.3738 39.2368 17.089C39.2368 17.089 41.5451 21.2408 41.5451 26.3544C41.5451 26.3384 40.1986 28.6467 36.656 28.7589V28.7589ZM60.8613 14.8609H55.5394V20.8401L59.082 24.0301V18.2272H60.9735C62.1758 18.2272 62.7689 18.8043 62.7689 19.734V24.1743C62.7689 25.1041 62.2079 25.7292 60.9735 25.7292H55.5233V29.1116H60.8453C63.6987 29.1276 66.3757 27.7009 66.3757 24.4308V19.6538C66.3917 16.3196 63.7147 14.8609 60.8613 14.8609V14.8609ZM88.7536 24.4308V19.5256C88.7536 17.7623 91.9276 17.3616 92.8894 19.1249L95.8229 17.9386C94.6687 15.4059 92.5688 14.6685 90.8215 14.6685C87.9681 14.6685 85.1468 16.3196 85.1468 19.5256V24.4308C85.1468 27.6689 87.9681 29.2879 90.7574 29.2879C92.5527 29.2879 94.7007 28.4063 95.887 26.0979L92.7451 24.6552C91.9756 26.6269 88.7536 26.146 88.7536 24.4308V24.4308ZM79.0554 20.1989C77.9494 19.9584 77.212 19.5577 77.1639 18.8684C77.228 17.2173 79.7768 17.1532 81.2676 18.7401L83.624 16.9287C82.1492 15.1334 80.4821 14.6525 78.7669 14.6525C76.154 14.6525 73.6212 16.1272 73.6212 18.9165C73.6212 21.6255 75.7052 23.0843 77.9974 23.4369C79.1676 23.5972 80.4661 24.0621 80.434 24.8636C80.3378 26.3865 77.1959 26.3063 75.7693 24.5751L73.493 26.7071C74.8235 28.4223 76.6349 29.2879 78.3341 29.2879C80.947 29.2879 83.8484 27.7811 83.9606 25.0239C84.1209 21.5454 81.5882 20.6637 79.0554 20.1989V20.1989ZM68.3153 29.0955H71.906V14.8609H68.3153V29.0955ZM128.861 14.8609H123.539V20.8401L127.081 24.0301V18.2272H128.973C130.175 18.2272 130.768 18.8043 130.768 19.734V24.1743C130.768 25.1041 130.207 25.7292 128.973 25.7292H123.523V29.1116H128.861C131.714 29.1276 134.391 27.7009 134.391 24.4308V19.6538C134.391 16.3196 131.714 14.8609 128.861 14.8609V14.8609ZM102.748 14.6685C99.7983 14.6685 96.8648 16.2715 96.8648 19.5577V24.4148C96.8648 27.6689 99.8143 29.3039 102.78 29.3039C105.729 29.3039 108.663 27.6689 108.663 24.4148V19.5577C108.663 16.2875 105.697 14.6685 102.748 14.6685V14.6685ZM105.056 24.4148C105.056 25.4407 103.902 25.9697 102.764 25.9697C101.61 25.9697 100.456 25.4728 100.456 24.4148V19.5577C100.456 18.5157 101.578 17.9547 102.7 17.9547C103.87 17.9547 105.056 18.4516 105.056 19.5577V24.4148ZM121.551 19.5577C121.471 16.2234 119.195 14.8769 116.261 14.8769H110.57V29.1116H114.209V24.5911H114.851L118.153 29.1116H122.641L118.762 24.2224C120.477 23.6774 121.551 22.1866 121.551 19.5577V19.5577ZM116.325 21.4813H114.209V18.2272H116.325C118.586 18.2272 118.586 21.4813 116.325 21.4813Z" fill="#7289DA"/>
</g>
<defs>
<clipPath id="clip0_615_219">
<rect width="28" height="31.1111" fill="white" transform="translate(18 8)"/>
</clipPath>
</defs>
</svg>
