<svg width="76" height="76" viewBox="0 0 76 76" fill="none" xmlns="http://www.w3.org/2000/svg">
<rect width="76" height="76" rx="22" fill="#39B54A" fill-opacity="0.1"/>
<path d="M49.58 34.94V49.58C49.58 54.24 45.8 58 41.16 58H26.42C21.78 58 18 54.22 18 49.58V34.94C18 30.28 21.78 26.52 26.42 26.52H41.16C45.8 26.52 49.58 30.3 49.58 34.94Z" stroke="#39B54A" stroke-width="2.5" stroke-linecap="round" stroke-linejoin="round"/>
<path opacity="0.34" d="M25 22V18.5" stroke="#39B54A" stroke-width="2.5" stroke-linecap="round" stroke-linejoin="round"/>
<path opacity="0.34" d="M33 22V18.5" stroke="#39B54A" stroke-width="2.5" stroke-linecap="round" stroke-linejoin="round"/>
<path opacity="0.34" d="M41 22V18.5" stroke="#39B54A" stroke-width="2.5" stroke-linecap="round" stroke-linejoin="round"/>
<path d="M58.0001 40.3199C58.0001 44.9599 54.2201 48.7399 49.5801 48.7399V31.8999C54.2201 31.8999 58.0001 35.6599 58.0001 40.3199Z" stroke="#39B54A" stroke-width="2.5" stroke-linecap="round" stroke-linejoin="round"/>
<path opacity="0.34" d="M18 38H49.02" stroke="#39B54A" stroke-width="2.5" stroke-linecap="round" stroke-linejoin="round"/>
</svg>
