<svg width="1440" height="600" viewBox="0 0 1440 600" fill="none" xmlns="http://www.w3.org/2000/svg">
<g clip-path="url(#clip0_58_1644)">
<rect width="1440" height="600" fill="#0E243A"/>
<path d="M1312.03 637.175C1224.37 705.83 973.432 796.321 670.969 609.046C368.507 421.77 383.411 227.886 428.671 154.354" stroke="#828282" stroke-width="0.2"/>
<path d="M1328.16 613.444C1240.5 682.099 989.561 772.59 687.098 585.315C384.636 398.039 399.54 204.155 444.8 130.623" stroke="#828282" stroke-width="0.2"/>
<path d="M1344.29 589.715C1256.63 658.37 1005.69 748.862 703.228 561.586C400.766 374.31 415.67 180.427 460.93 106.894" stroke="#828282" stroke-width="0.2"/>
<path d="M1360.42 565.984C1272.76 634.639 1021.82 725.131 719.357 537.855C416.895 350.579 431.799 156.696 477.059 83.1633" stroke="#828282" stroke-width="0.2"/>
<path d="M1376.55 542.255C1288.89 610.911 1037.95 701.402 735.487 514.126C433.025 326.85 447.929 132.967 493.189 59.4347" stroke="#828282" stroke-width="0.2"/>
<path d="M1392.68 518.525C1305.02 587.18 1054.08 677.671 751.616 490.395C449.154 303.12 464.058 109.236 509.317 35.7039" stroke="#828282" stroke-width="0.2"/>
<path d="M1408.81 494.794C1321.15 563.449 1070.21 653.94 767.746 466.665C465.283 279.389 480.188 85.5053 525.447 11.973" stroke="#828282" stroke-width="0.2"/>
<path d="M1424.94 471.065C1337.28 539.72 1086.34 630.212 783.876 442.936C481.413 255.66 496.317 61.7766 541.577 -11.7556" stroke="#828282" stroke-width="0.2"/>
<path d="M1441.07 447.332C1353.41 515.987 1102.47 606.478 800.005 419.203C497.542 231.927 512.446 38.0434 557.706 -35.4889" stroke="#828282" stroke-width="0.2"/>
<path d="M1457.2 423.603C1369.54 492.258 1118.6 582.75 816.133 395.474C513.671 208.198 528.575 14.3147 573.835 -59.2175" stroke="#828282" stroke-width="0.2"/>
<path d="M1473.33 399.872C1385.66 468.527 1134.72 559.019 832.262 371.743C529.8 184.467 544.704 -9.41635 589.964 -82.9486" stroke="#828282" stroke-width="0.2"/>
<path d="M1489.46 376.144C1401.8 444.799 1150.86 535.29 848.393 348.015C545.931 160.739 560.835 -33.1446 606.095 -106.677" stroke="#828282" stroke-width="0.2"/>
<path d="M1505.59 352.413C1417.92 421.068 1166.98 511.559 864.521 324.284C562.059 137.008 576.963 -56.8757 622.223 -130.408" stroke="#828282" stroke-width="0.2"/>
<path d="M1521.72 328.682C1434.05 397.337 1183.11 487.828 880.651 300.553C578.189 113.277 593.093 -80.6067 638.353 -154.139" stroke="#828282" stroke-width="0.2"/>
<path d="M1537.84 304.953C1450.18 373.608 1199.24 464.1 896.781 276.824C594.319 89.5481 609.223 -104.335 654.483 -177.868" stroke="#828282" stroke-width="0.2"/>
<path d="M1553.97 281.222C1466.31 349.877 1215.37 440.369 912.91 253.093C610.447 65.8172 625.352 -128.066 670.611 -201.599" stroke="#828282" stroke-width="0.2"/>
<path d="M1570.1 257.494C1482.44 326.149 1231.5 416.64 929.041 229.364C626.578 42.0886 641.482 -151.795 686.742 -225.327" stroke="#828282" stroke-width="0.2"/>
<path d="M1586.23 233.763C1498.57 302.418 1247.63 392.909 945.171 205.634C642.708 18.3578 657.612 -175.526 702.872 -249.058" stroke="#828282" stroke-width="0.2"/>
<path d="M1602.36 210.032C1514.7 278.687 1263.76 369.179 961.298 181.903C658.836 -5.37304 673.74 -199.257 719 -272.789" stroke="#828282" stroke-width="0.2"/>
<path d="M1618.49 186.303C1530.83 254.958 1279.89 345.45 977.428 158.174C674.966 -29.1019 689.87 -222.985 735.13 -296.518" stroke="#828282" stroke-width="0.2"/>
</g>
<defs>
<clipPath id="clip0_58_1644">
<rect width="1440" height="600" fill="white"/>
</clipPath>
</defs>
</svg>
