<svg width="150" height="55" viewBox="0 0 150 55" fill="none" xmlns="http://www.w3.org/2000/svg">
<g clip-path="url(#clip0_58_1682)">
<path d="M45.1604 10.4869L29.1546 1.24407C26.4191 -0.333962 23.0506 -0.333962 20.315 1.24407L4.30923 10.4869C1.57368 12.0649 -0.108398 14.9825 -0.108398 18.1429V36.6285C-0.108398 39.7845 1.57802 42.7022 4.30923 44.2845L20.315 53.5273C23.0506 55.1054 26.4191 55.1054 29.1546 53.5273L45.1604 44.2845C47.896 42.7065 49.578 39.7889 49.578 36.6285V18.1429C49.5824 14.9825 47.896 12.0649 45.1604 10.4869ZM24.7326 49.1747C12.698 49.1747 2.93929 39.416 2.93929 27.3814C2.93929 15.3467 12.698 5.58801 24.7326 5.58801C36.7673 5.58801 46.526 15.3467 46.526 27.3814C46.526 39.416 36.7717 49.1747 24.7326 49.1747Z" fill="#F2F2F2"/>
<path d="M34.591 16.0059H29.0982V21.646H17.3323V16.0059H11.8396V21.646H7.74707V27.1215H11.8396V33.7501C11.8396 35.5666 12.2644 36.9408 13.1141 37.8686C13.9638 38.7963 15.2948 39.2602 17.1112 39.2602H26.6011V33.9668H18.5159C18.13 33.9668 17.8352 33.8281 17.6358 33.555C17.4364 33.2819 17.3367 32.8917 17.3367 32.3845V27.1215H29.1026V33.7501C29.1026 35.5666 29.5274 36.9408 30.3771 37.8686C31.2268 38.7963 32.5578 39.2602 34.3742 39.2602H39.9884V33.9668H35.7789C35.393 33.9668 35.0982 33.8281 34.8988 33.555C34.6994 33.2819 34.5997 32.8917 34.5997 32.3845V27.1215H39.9927V21.646H34.5997V16.0059H34.591Z" fill="#F2F2F2"/>
<g clip-path="url(#clip1_58_1682)">
<path d="M45.1604 10.4878L29.1546 1.24505C26.4191 -0.332985 23.0506 -0.332985 20.315 1.24505L4.30923 10.4878C1.57368 12.0659 -0.108398 14.9835 -0.108398 18.1439V36.6294C-0.108398 39.7855 1.57802 42.7032 4.30923 44.2855L20.315 53.5283C23.0506 55.1063 26.4191 55.1063 29.1546 53.5283L45.1604 44.2855C47.896 42.7075 49.578 39.7899 49.578 36.6294V18.1439C49.5824 14.9835 47.896 12.0659 45.1604 10.4878ZM24.7326 49.1757C12.698 49.1757 2.93929 39.417 2.93929 27.3823C2.93929 15.3477 12.698 5.58898 24.7326 5.58898C36.7673 5.58898 46.526 15.3477 46.526 27.3823C46.526 39.417 36.7717 49.1757 24.7326 49.1757Z" fill="#F2F2F2"/>
<path d="M34.591 16.0068H29.0982V21.647H17.3323V16.0068H11.8396V21.647H7.74707V27.1224H11.8396V33.7511C11.8396 35.5675 12.2644 36.9418 13.1141 37.8696C13.9638 38.7973 15.2948 39.2612 17.1112 39.2612H26.6011V33.9678H18.5159C18.13 33.9678 17.8352 33.8291 17.6358 33.556C17.4364 33.2828 17.3367 32.8927 17.3367 32.3855V27.1224H29.1026V33.7511C29.1026 35.5675 29.5274 36.9418 30.3771 37.8696C31.2268 38.7973 32.5578 39.2612 34.3742 39.2612H39.9884V33.9678H35.7789C35.393 33.9678 35.0982 33.8291 34.8988 33.556C34.6994 33.2828 34.5997 32.8927 34.5997 32.3855V27.1224H39.9927V21.647H34.5997V16.0068H34.591Z" fill="#F2F2F2"/>
<path d="M58.8514 27.0655C58.7127 26.8748 58.6433 26.6016 58.6433 26.2461V22.5698V18.7418V15.0352H54.8066V27.6118C54.8066 28.882 55.1014 29.4282 55.6954 30.0785C56.2893 30.7288 57.2214 31.0496 58.4873 31.0496H65.1159V27.3516H59.467C59.1983 27.356 58.9945 27.2563 58.8514 27.0655Z" fill="#F2F2F2"/>
<path d="M95.4241 15.0527H91.5874V18.9935H86.3894V15.0527H82.5527V18.9935H79.6914V22.8215H82.5527V27.2045C82.5527 28.4747 82.8475 29.4328 83.4414 30.0831C84.0353 30.7334 84.9674 31.0542 86.2333 31.0542H90.3908V27.3562H87.2131C86.9443 27.3562 86.7362 27.2608 86.5975 27.0701C86.4587 26.8793 86.3894 26.6062 86.3894 26.2507V22.8215H91.5874V27.2045C91.5874 28.4747 91.8822 29.4328 92.4761 30.0831C93.07 30.7334 94.0021 31.0542 95.268 31.0542H99.1914V27.3562H96.2478C95.979 27.3562 95.7709 27.2608 95.6322 27.0701C95.4934 26.8793 95.4241 26.6062 95.4241 26.2507V22.8215H99.1914V18.9935H95.4241V15.0527V15.0527Z" fill="#F2F2F2"/>
<path d="M109.782 27.0655C109.643 26.8748 109.574 26.6016 109.574 26.2461V22.5698V18.7418V15.0352H105.737V18.7418V22.5698V27.1999C105.737 28.4701 106.032 29.4282 106.626 30.0785C107.22 30.7288 108.152 31.0496 109.418 31.0496H113.341V27.3516H110.398C110.129 27.356 109.925 27.2563 109.782 27.0655Z" fill="#F2F2F2"/>
<path d="M75.6589 18.1264C74.7442 17.6278 73.643 17.3721 72.3814 17.3721C71.1199 17.3721 70.0187 17.6235 69.1083 18.1264C68.1719 18.638 67.4523 19.3923 66.9624 20.3634C66.4855 21.3085 66.2471 22.453 66.2471 23.7536V24.6163C66.2471 25.9385 66.4898 27.0917 66.9624 28.0455C67.4523 29.0296 68.1719 29.7883 69.1083 30.3041C70.0231 30.807 71.1242 31.0672 72.3858 31.0672C73.6473 31.0672 74.7485 30.8114 75.6632 30.3085C76.5953 29.7926 77.3193 29.0383 77.8092 28.0628C78.2861 27.1134 78.5245 25.9689 78.5245 24.6596V23.7579C78.5245 22.4573 78.2817 21.3172 77.8092 20.3677C77.3106 19.3923 76.591 18.638 75.6589 18.1264ZM74.6358 23.7579V24.6596C74.6358 25.5354 74.4364 26.2117 74.0375 26.6669C73.656 27.1004 73.1141 27.3128 72.3814 27.3128C71.6488 27.3128 71.1069 27.1004 70.7254 26.6669C70.3309 26.2117 70.1271 25.5354 70.1271 24.6596V23.7579C70.1271 22.8822 70.3265 22.2145 70.7211 21.768C71.1026 21.3388 71.6445 21.1307 72.3814 21.1307C73.1184 21.1307 73.6604 21.3388 74.0419 21.768C74.4364 22.2145 74.6358 22.8822 74.6358 23.7579Z" fill="#F2F2F2"/>
<path d="M118.387 15.0352H114.503V18.2649H118.387V15.0352Z" fill="#F2F2F2"/>
<path d="M114.503 31.0711H118.387L118.405 18.9844H114.52L114.503 31.0711Z" fill="#F2F2F2"/>
<path d="M103.999 27.2649L103.045 26.7143C102.69 26.5106 102.248 26.5106 101.892 26.7143L100.943 27.2649C100.587 27.4687 100.366 27.8545 100.366 28.2664V29.3675C100.366 29.7794 100.587 30.1609 100.943 30.369L101.892 30.9195C102.07 31.0236 102.269 31.0756 102.469 31.0756C102.668 31.0756 102.868 31.0236 103.045 30.9195L103.999 30.369C104.355 30.1652 104.576 29.7794 104.576 29.3675V28.2664C104.576 27.8545 104.355 27.4687 103.999 27.2649Z" fill="#F2F2F2"/>
<path d="M128.94 19.9559C128.207 19.3099 127.188 18.9805 125.909 18.9805H123.724C122.445 18.9805 121.427 19.3099 120.694 19.9559C119.94 20.6235 119.554 21.56 119.554 22.7391V31.0672H123.308V23.7926C123.308 23.242 123.486 22.8649 124.262 22.8649H125.463C126.2 22.8649 126.321 23.3808 126.321 23.7839V31.0672H130.075V22.7391C130.08 21.56 129.698 20.6235 128.94 19.9559Z" fill="#F2F2F2"/>
<path d="M140.632 23.8661C140.112 23.4109 139.453 23.1117 138.66 22.9774L142.795 18.9152H137.918L135.139 21.512V15.0352H131.255V31.067H135.009V27.4774C135.009 26.9745 135.373 26.7794 135.746 26.7794H137.259C137.758 26.7794 138.018 27.0048 138.018 27.4774V31.067H141.772V26.6493C141.772 25.4701 141.391 24.5337 140.632 23.8661Z" fill="#F2F2F2"/>
<path d="M55.0929 34.5137C55.2186 34.5137 55.3313 34.557 55.418 34.6394C55.5091 34.7218 55.5524 34.8215 55.5524 34.9385C55.5524 35.0512 55.5091 35.151 55.418 35.2333C55.327 35.3157 55.2186 35.3591 55.0929 35.3591C54.9672 35.3591 54.8588 35.32 54.7721 35.2333C54.681 35.151 54.6377 35.0512 54.6377 34.9385C54.6377 34.8215 54.681 34.7218 54.7721 34.6394C54.8588 34.557 54.9672 34.5137 55.0929 34.5137ZM54.8154 36.1481H55.3747V40.1148H54.8154V36.1481Z" fill="#F2F2F2"/>
<path d="M56.541 36.148H57.1003V36.859C57.3257 36.5858 57.5728 36.3821 57.8459 36.2477C58.119 36.1133 58.4138 36.0439 58.7347 36.0439C59.0598 36.0439 59.3503 36.1176 59.6017 36.2694C59.8532 36.4211 60.0396 36.6249 60.1609 36.8806C60.2823 37.1364 60.343 37.5353 60.343 38.0728V40.1147H59.7838V38.2202C59.7838 37.765 59.7621 37.4572 59.7231 37.3055C59.6581 37.041 59.5323 36.846 59.3503 36.7116C59.1682 36.5772 58.9254 36.5121 58.6306 36.5121C58.2925 36.5121 57.989 36.6162 57.7202 36.8199C57.4514 37.0237 57.2737 37.2751 57.1913 37.5786C57.1393 37.7737 57.1133 38.1335 57.1133 38.6581V40.1147H56.554V36.148H56.541Z" fill="#F2F2F2"/>
<path d="M62.0247 34.6738H62.584V36.1478H63.4727V36.59H62.584V40.1146H62.0247V36.59H61.2617V36.1478H62.0247V34.6738Z" fill="#F2F2F2"/>
<path d="M67.9777 38.8013L68.4503 39.0267C68.2942 39.3042 68.1164 39.5296 67.9127 39.6987C67.7089 39.8678 67.4835 39.9978 67.2277 40.0889C66.9763 40.1756 66.6858 40.2233 66.365 40.2233C65.654 40.2233 65.0991 40.0108 64.7002 39.586C64.3014 39.1611 64.0977 38.6842 64.0977 38.1467C64.0977 37.6438 64.2667 37.1929 64.6049 36.8027C65.0341 36.2998 65.6107 36.0527 66.3303 36.0527C67.0716 36.0527 67.6656 36.3085 68.1078 36.8244C68.4242 37.1886 68.5846 37.6394 68.589 38.1813H64.6699C64.6786 38.6409 64.8433 39.018 65.1555 39.3128C65.4676 39.6076 65.8534 39.755 66.313 39.755C66.5341 39.755 66.7508 39.7204 66.9589 39.651C67.167 39.5816 67.3491 39.4863 67.4922 39.3692C67.6482 39.2478 67.8086 39.0571 67.9777 38.8013ZM67.9777 37.7305C67.904 37.4574 67.7956 37.2406 67.6526 37.0758C67.5095 36.9111 67.3187 36.781 67.0846 36.6813C66.8505 36.5816 66.6034 36.5339 66.3433 36.5339C65.9141 36.5339 65.55 36.6597 65.2422 36.9111C65.0167 37.0932 64.8477 37.3663 64.7349 37.7305H67.9777Z" fill="#F2F2F2"/>
<path d="M69.4258 36.1485H69.998V36.7295C70.1671 36.4997 70.3492 36.3306 70.5399 36.2179C70.7307 36.1052 70.9258 36.0488 71.1339 36.0488C71.2899 36.0488 71.4547 36.0922 71.6281 36.1832L71.3376 36.6124C71.2206 36.5647 71.1209 36.5431 71.0428 36.5431C70.8564 36.5431 70.6743 36.6124 70.5009 36.7511C70.3275 36.8899 70.1974 37.1066 70.1064 37.4014C70.037 37.6269 70.0024 38.0864 70.0024 38.7714V40.1153H69.4301V36.1485H69.4258Z" fill="#F2F2F2"/>
<path d="M76.4395 36.1484V40.1152H75.8889V39.4345C75.6548 39.6947 75.3904 39.8897 75.0999 40.0198C74.8095 40.1499 74.4887 40.2149 74.1418 40.2149C73.5262 40.2149 72.9973 40.0111 72.5638 39.6036C72.1303 39.1961 71.9092 38.7019 71.9092 38.1166C71.9092 37.5444 72.1303 37.0545 72.5681 36.6513C73.0103 36.2438 73.5392 36.04 74.1548 36.04C74.5103 36.04 74.8355 36.1094 75.1259 36.2481C75.4164 36.3869 75.6678 36.5949 75.8889 36.8724V36.1441H76.4395V36.1484ZM74.2025 36.5386C73.8904 36.5386 73.6043 36.608 73.3398 36.7467C73.0754 36.8854 72.8673 37.0805 72.7112 37.3363C72.5551 37.5877 72.4771 37.8565 72.4771 38.1383C72.4771 38.4158 72.5551 38.6845 72.7112 38.9403C72.8673 39.1961 73.0797 39.3955 73.3441 39.5343C73.6086 39.6773 73.8947 39.7467 74.1982 39.7467C74.506 39.7467 74.7965 39.6773 75.0696 39.5343C75.3427 39.3912 75.5551 39.2048 75.7025 38.962C75.8499 38.7236 75.9236 38.4504 75.9236 38.1513C75.9236 37.6918 75.7589 37.3103 75.4251 36.9981C75.0956 36.6947 74.6881 36.5386 74.2025 36.5386Z" fill="#F2F2F2"/>
<path d="M81.9283 36.9716L81.4861 37.223C81.1002 36.7591 80.58 36.525 79.9167 36.525C79.3878 36.525 78.9456 36.6811 78.5945 36.9932C78.2433 37.3054 78.0699 37.6826 78.0699 38.1248C78.0699 38.4152 78.1523 38.684 78.3127 38.9398C78.4731 39.1956 78.6942 39.3907 78.976 39.5337C79.2578 39.6768 79.5742 39.7461 79.9211 39.7461C80.5583 39.7461 81.0829 39.512 81.4861 39.0482L81.9283 39.3126C81.7202 39.5987 81.4427 39.8198 81.0916 39.9759C80.7404 40.132 80.3416 40.21 79.895 40.21C79.2057 40.21 78.6378 40.0106 78.1826 39.6117C77.7274 39.2129 77.502 38.7274 77.502 38.1551C77.502 37.7693 77.6103 37.4138 77.8184 37.0843C78.0265 36.7548 78.3213 36.499 78.6942 36.3126C79.0627 36.1262 79.4789 36.0352 79.9384 36.0352C80.2289 36.0352 80.5063 36.0742 80.7708 36.1565C81.0396 36.2346 81.265 36.343 81.4514 36.4687C81.6378 36.6074 81.7982 36.7722 81.9283 36.9716Z" fill="#F2F2F2"/>
<path d="M83.4935 34.6738H84.0527V36.1478H84.9415V36.59H84.0527V40.1146H83.4935V36.59H82.7305V36.1478H83.4935V34.6738Z" fill="#F2F2F2"/>
<path d="M87.46 36.1484H88.0366L89.3718 39.0314L90.7591 36.1484H90.8588L92.2591 39.0314L93.6204 36.1484H94.2013L92.3111 40.1152H92.2071L90.8155 37.2756L89.4238 40.1152H89.3198L87.46 36.1484Z" fill="#F2F2F2"/>
<path d="M95.0513 34.5137C95.1771 34.5137 95.2855 34.557 95.3765 34.6394C95.4675 34.7218 95.5109 34.8215 95.5109 34.9385C95.5109 35.0512 95.4675 35.151 95.3765 35.2333C95.2855 35.3157 95.1771 35.3591 95.0513 35.3591C94.9256 35.3591 94.8172 35.32 94.7262 35.2333C94.6351 35.151 94.5918 35.0512 94.5918 34.9385C94.5918 34.8215 94.6351 34.7218 94.7262 34.6394C94.8216 34.557 94.93 34.5137 95.0513 34.5137ZM94.7739 36.1481H95.3331V40.1148H94.7739V36.1481Z" fill="#F2F2F2"/>
<path d="M96.9886 34.6738H97.5479V36.1478H98.4366V36.59H97.5479V40.1146H96.9886V36.59H96.2256V36.1478H96.9886V34.6738Z" fill="#F2F2F2"/>
<path d="M99.2773 34.6182H99.8366V36.8595C100.062 36.5864 100.313 36.3826 100.587 36.2482C100.86 36.1138 101.155 36.0445 101.471 36.0445C101.796 36.0445 102.087 36.1182 102.338 36.2699C102.589 36.4216 102.776 36.6254 102.897 36.8768C103.019 37.1326 103.079 37.5271 103.079 38.069V40.1109H102.52V38.2164C102.52 37.7612 102.498 37.4534 102.459 37.3017C102.39 37.0372 102.264 36.8422 102.082 36.7078C101.9 36.5734 101.662 36.5083 101.363 36.5083C101.024 36.5083 100.721 36.6124 100.452 36.8161C100.183 37.0199 100.006 37.2713 99.9233 37.5748C99.8713 37.7699 99.8453 38.1297 99.8453 38.6543V40.1109H99.2773V34.6182Z" fill="#F2F2F2"/>
<path d="M106.076 36.1484H106.67L108.166 39.2048L109.618 36.1484H110.216L107.62 41.5675H107.03L107.867 39.8161L106.076 36.1484Z" fill="#F2F2F2"/>
<path d="M112.999 36.0439C113.671 36.0439 114.226 36.265 114.668 36.7072C115.067 37.1104 115.271 37.5873 115.271 38.1422C115.271 38.6971 115.058 39.1827 114.638 39.5945C114.213 40.0107 113.671 40.2145 113.004 40.2145C112.336 40.2145 111.79 40.0064 111.365 39.5945C110.94 39.1783 110.728 38.6971 110.728 38.1422C110.728 37.5916 110.927 37.1147 111.33 36.7116C111.768 36.2694 112.323 36.0439 112.999 36.0439ZM112.995 36.5468C112.531 36.5468 112.128 36.7029 111.794 37.0194C111.46 37.3359 111.291 37.713 111.291 38.1552C111.291 38.4413 111.369 38.7101 111.521 38.9572C111.673 39.2043 111.881 39.3951 112.141 39.5295C112.401 39.6639 112.687 39.7332 112.995 39.7332C113.307 39.7332 113.589 39.6639 113.849 39.5295C114.109 39.3951 114.313 39.2043 114.469 38.9572C114.621 38.7101 114.699 38.4413 114.699 38.1552C114.699 37.7087 114.53 37.3315 114.196 37.0194C113.862 36.7072 113.459 36.5468 112.995 36.5468Z" fill="#F2F2F2"/>
<path d="M116.229 36.1479H116.788V37.999C116.788 38.4499 116.814 38.7621 116.871 38.9311C116.949 39.1739 117.105 39.3647 117.33 39.5077C117.556 39.6508 117.824 39.7201 118.136 39.7201C118.449 39.7201 118.713 39.6508 118.93 39.5121C119.147 39.3733 119.298 39.1956 119.381 38.9702C119.437 38.8184 119.463 38.4933 119.463 37.9947V36.1436H120.035V38.0901C120.035 38.6363 119.966 39.0482 119.823 39.3256C119.684 39.6031 119.472 39.8199 119.19 39.9759C118.908 40.132 118.557 40.21 118.132 40.21C117.707 40.21 117.356 40.132 117.07 39.9759C116.784 39.8199 116.576 39.5988 116.433 39.3213C116.294 39.0395 116.225 38.619 116.225 38.0554V36.1479H116.229Z" fill="#F2F2F2"/>
<path d="M121.071 36.1485H121.644V36.7295C121.813 36.4997 121.995 36.3306 122.185 36.2179C122.376 36.1052 122.571 36.0488 122.779 36.0488C122.935 36.0488 123.1 36.0922 123.274 36.1832L122.983 36.6124C122.866 36.5647 122.766 36.5431 122.688 36.5431C122.502 36.5431 122.32 36.6124 122.146 36.7511C121.973 36.8899 121.843 37.1066 121.752 37.4014C121.683 37.6269 121.648 38.0864 121.648 38.7714V40.1153H121.076V36.1485H121.071Z" fill="#F2F2F2"/>
<path d="M126.113 40.1151V34.748H126.243L130.162 38.8622V34.748H130.743V40.1151H130.613L126.729 36.053V40.1151H126.113Z" fill="#F2F2F2"/>
<path d="M132.169 34.752H135.117V35.2765H132.755V36.9586H135.117V37.4832H132.755V40.1147H132.165V34.752H132.169Z" fill="#F2F2F2"/>
<path d="M135.56 35.2765V34.752H138.785V35.2765H137.471V40.1147H136.873V35.2765H135.56Z" fill="#F2F2F2"/>
<path d="M141.729 36.5812L141.369 36.9193C141.07 36.6549 140.775 36.5205 140.489 36.5205C140.307 36.5205 140.151 36.5768 140.02 36.6852C139.89 36.7936 139.825 36.9237 139.825 37.0667C139.825 37.1968 139.877 37.3182 139.986 37.4352C140.094 37.5523 140.315 37.6953 140.658 37.8557C141.074 38.0508 141.36 38.2416 141.507 38.4237C141.655 38.6101 141.729 38.8182 141.729 39.0479C141.729 39.3731 141.603 39.6505 141.351 39.876C141.1 40.1014 140.788 40.2141 140.411 40.2141C140.159 40.2141 139.921 40.1621 139.691 40.0667C139.461 39.967 139.275 39.8283 139.123 39.6549L139.474 39.2907C139.76 39.5855 140.064 39.7329 140.385 39.7329C140.61 39.7329 140.801 39.6679 140.957 39.5378C141.113 39.4078 141.195 39.2517 141.195 39.0739C141.195 38.9265 141.143 38.7965 141.039 38.6838C140.935 38.5711 140.701 38.4323 140.333 38.2589C139.938 38.0725 139.674 37.8904 139.531 37.7127C139.387 37.5349 139.318 37.3268 139.318 37.0971C139.318 36.7936 139.431 36.5465 139.656 36.3471C139.882 36.1476 140.168 36.0479 140.51 36.0479C140.918 36.0436 141.325 36.2257 141.729 36.5812Z" fill="#F2F2F2"/>
</g>
<path d="M58.8514 27.0645C58.7127 26.8738 58.6433 26.6007 58.6433 26.2452V22.5689V18.7408V15.0342H54.8066V27.6108C54.8066 28.881 55.1014 29.4272 55.6954 30.0775C56.2893 30.7278 57.2214 31.0486 58.4873 31.0486H65.1159V27.3507H59.467C59.1983 27.355 58.9945 27.2553 58.8514 27.0645Z" fill="#39B54A"/>
<path d="M95.4241 15.0518H91.5874V18.9925H86.3894V15.0518H82.5527V18.9925H79.6914V22.8206H82.5527V27.2035C82.5527 28.4737 82.8475 29.4318 83.4414 30.0821C84.0353 30.7324 84.9674 31.0532 86.2333 31.0532H90.3908V27.3552H87.2131C86.9443 27.3552 86.7362 27.2599 86.5975 27.0691C86.4587 26.8783 86.3894 26.6052 86.3894 26.2497V22.8206H91.5874V27.2035C91.5874 28.4737 91.8822 29.4318 92.4761 30.0821C93.07 30.7324 94.0021 31.0532 95.268 31.0532H99.1914V27.3552H96.2478C95.979 27.3552 95.7709 27.2599 95.6322 27.0691C95.4934 26.8783 95.4241 26.6052 95.4241 26.2497V22.8206H99.1914V18.9925H95.4241V15.0518Z" fill="#39B54A"/>
<path d="M109.782 27.0645C109.643 26.8738 109.574 26.6007 109.574 26.2452V22.5689V18.7408V15.0342H105.737V18.7408V22.5689V27.1989C105.737 28.4691 106.032 29.4272 106.626 30.0775C107.22 30.7278 108.152 31.0486 109.418 31.0486H113.341V27.3507H110.398C110.129 27.355 109.925 27.2553 109.782 27.0645Z" fill="#F2F2F2"/>
<path d="M75.6589 18.1254C74.7442 17.6269 73.643 17.3711 72.3814 17.3711C71.1199 17.3711 70.0187 17.6225 69.1083 18.1254C68.1719 18.637 67.4523 19.3913 66.9624 20.3624C66.4855 21.3075 66.2471 22.452 66.2471 23.7526V24.6153C66.2471 25.9376 66.4898 27.0907 66.9624 28.0445C67.4523 29.0286 68.1719 29.7873 69.1083 30.3032C70.0231 30.8061 71.1242 31.0662 72.3858 31.0662C73.6473 31.0662 74.7485 30.8104 75.6632 30.3075C76.5953 29.7916 77.3193 29.0373 77.8092 28.0618C78.2861 27.1124 78.5245 25.9679 78.5245 24.6587V23.7569C78.5245 22.4563 78.2817 21.3162 77.8092 20.3668C77.3106 19.3913 76.591 18.637 75.6589 18.1254ZM74.6358 23.7569V24.6587C74.6358 25.5344 74.4364 26.2107 74.0375 26.6659C73.656 27.0994 73.1141 27.3118 72.3814 27.3118C71.6488 27.3118 71.1069 27.0994 70.7254 26.6659C70.3309 26.2107 70.1271 25.5344 70.1271 24.6587V23.7569C70.1271 22.8812 70.3265 22.2136 70.7211 21.767C71.1026 21.3379 71.6445 21.1298 72.3814 21.1298C73.1184 21.1298 73.6604 21.3379 74.0419 21.767C74.4364 22.2136 74.6358 22.8812 74.6358 23.7569Z" fill="#39B54A"/>
<path d="M118.387 15.0342H114.503V18.264H118.387V15.0342Z" fill="#F2F2F2"/>
<path d="M114.503 31.0701H118.387L118.405 18.9834H114.52L114.503 31.0701Z" fill="#F2F2F2"/>
<path d="M103.999 27.264L103.045 26.7134C102.69 26.5096 102.248 26.5096 101.892 26.7134L100.943 27.264C100.587 27.4677 100.366 27.8535 100.366 28.2654V29.3665C100.366 29.7784 100.587 30.1599 100.943 30.368L101.892 30.9186C102.07 31.0226 102.269 31.0746 102.469 31.0746C102.668 31.0746 102.868 31.0226 103.045 30.9186L103.999 30.368C104.355 30.1642 104.576 29.7784 104.576 29.3665V28.2654C104.576 27.8535 104.355 27.4677 103.999 27.264Z" fill="#F2F2F2"/>
<path d="M128.94 19.9549C128.207 19.309 127.188 18.9795 125.909 18.9795H123.724C122.445 18.9795 121.427 19.309 120.694 19.9549C119.94 20.6226 119.554 21.559 119.554 22.7382V31.0662H123.308V23.7916C123.308 23.2411 123.486 22.8639 124.262 22.8639H125.463C126.2 22.8639 126.321 23.3798 126.321 23.783V31.0662H130.075V22.7382C130.08 21.559 129.698 20.6226 128.94 19.9549Z" fill="#F2F2F2"/>
<path d="M140.632 23.8651C140.112 23.4099 139.453 23.1108 138.66 22.9764L142.795 18.9142H137.918L135.139 21.5111V15.0342H131.255V31.066H135.009V27.4764C135.009 26.9735 135.373 26.7784 135.746 26.7784H137.259C137.758 26.7784 138.018 27.0038 138.018 27.4764V31.066H141.772V26.6483C141.772 25.4692 141.391 24.5327 140.632 23.8651Z" fill="#F2F2F2"/>
<path d="M55.0929 34.5127C55.2186 34.5127 55.3313 34.5561 55.418 34.6384C55.5091 34.7208 55.5524 34.8205 55.5524 34.9376C55.5524 35.0503 55.5091 35.15 55.418 35.2323C55.327 35.3147 55.2186 35.3581 55.0929 35.3581C54.9672 35.3581 54.8588 35.3191 54.7721 35.2323C54.681 35.15 54.6377 35.0503 54.6377 34.9376C54.6377 34.8205 54.681 34.7208 54.7721 34.6384C54.8588 34.5561 54.9672 34.5127 55.0929 34.5127ZM54.8154 36.1471H55.3747V40.1139H54.8154V36.1471Z" fill="#F2F2F2"/>
<path d="M56.541 36.147H57.1003V36.858C57.3257 36.5849 57.5728 36.3811 57.8459 36.2467C58.119 36.1123 58.4138 36.043 58.7347 36.043C59.0598 36.043 59.3503 36.1167 59.6017 36.2684C59.8532 36.4201 60.0396 36.6239 60.1609 36.8797C60.2823 37.1355 60.343 37.5343 60.343 38.0719V40.1138H59.7838V38.2193C59.7838 37.7641 59.7621 37.4563 59.7231 37.3045C59.6581 37.0401 59.5323 36.845 59.3503 36.7106C59.1682 36.5762 58.9254 36.5112 58.6306 36.5112C58.2925 36.5112 57.989 36.6152 57.7202 36.819C57.4514 37.0227 57.2737 37.2742 57.1913 37.5776C57.1393 37.7727 57.1133 38.1326 57.1133 38.6571V40.1138H56.554V36.147H56.541Z" fill="#F2F2F2"/>
<path d="M62.0247 34.6729H62.584V36.1468H63.4727V36.589H62.584V40.1136H62.0247V36.589H61.2617V36.1468H62.0247V34.6729Z" fill="#F2F2F2"/>
<path d="M67.9777 38.8003L68.4503 39.0257C68.2942 39.3032 68.1164 39.5286 67.9127 39.6977C67.7089 39.8668 67.4835 39.9968 67.2277 40.0879C66.9763 40.1746 66.6858 40.2223 66.365 40.2223C65.654 40.2223 65.0991 40.0098 64.7002 39.585C64.3014 39.1601 64.0977 38.6833 64.0977 38.1457C64.0977 37.6428 64.2667 37.1919 64.6049 36.8018C65.0341 36.2989 65.6107 36.0518 66.3303 36.0518C67.0716 36.0518 67.6656 36.3075 68.1078 36.8234C68.4242 37.1876 68.5846 37.6385 68.589 38.1804H64.6699C64.6786 38.6399 64.8433 39.0171 65.1555 39.3119C65.4676 39.6067 65.8534 39.7541 66.313 39.7541C66.5341 39.7541 66.7508 39.7194 66.9589 39.65C67.167 39.5807 67.3491 39.4853 67.4922 39.3682C67.6482 39.2468 67.8086 39.0561 67.9777 38.8003ZM67.9777 37.7295C67.904 37.4564 67.7956 37.2396 67.6526 37.0749C67.5095 36.9101 67.3187 36.7801 67.0846 36.6804C66.8505 36.5807 66.6034 36.533 66.3433 36.533C65.9141 36.533 65.55 36.6587 65.2422 36.9101C65.0167 37.0922 64.8477 37.3653 64.7349 37.7295H67.9777Z" fill="#F2F2F2"/>
<path d="M69.4258 36.1476H69.998V36.7285C70.1671 36.4987 70.3492 36.3296 70.5399 36.2169C70.7307 36.1042 70.9258 36.0479 71.1339 36.0479C71.2899 36.0479 71.4547 36.0912 71.6281 36.1822L71.3376 36.6114C71.2206 36.5638 71.1209 36.5421 71.0428 36.5421C70.8564 36.5421 70.6743 36.6114 70.5009 36.7502C70.3275 36.8889 70.1974 37.1057 70.1064 37.4005C70.037 37.6259 70.0024 38.0854 70.0024 38.7704V40.1143H69.4301V36.1476H69.4258Z" fill="#F2F2F2"/>
<path d="M76.4395 36.1474V40.1142H75.8889V39.4336C75.6548 39.6937 75.3904 39.8888 75.0999 40.0188C74.8095 40.1489 74.4887 40.2139 74.1418 40.2139C73.5262 40.2139 72.9973 40.0102 72.5638 39.6027C72.1303 39.1951 71.9092 38.7009 71.9092 38.1157C71.9092 37.5434 72.1303 37.0535 72.5681 36.6503C73.0103 36.2428 73.5392 36.0391 74.1548 36.0391C74.5103 36.0391 74.8355 36.1084 75.1259 36.2471C75.4164 36.3859 75.6678 36.594 75.8889 36.8714V36.1431H76.4395V36.1474ZM74.2025 36.5376C73.8904 36.5376 73.6043 36.607 73.3398 36.7457C73.0754 36.8844 72.8673 37.0795 72.7112 37.3353C72.5551 37.5867 72.4771 37.8555 72.4771 38.1373C72.4771 38.4148 72.5551 38.6836 72.7112 38.9394C72.8673 39.1951 73.0797 39.3946 73.3441 39.5333C73.6086 39.6763 73.8947 39.7457 74.1982 39.7457C74.506 39.7457 74.7965 39.6763 75.0696 39.5333C75.3427 39.3902 75.5551 39.2038 75.7025 38.961C75.8499 38.7226 75.9236 38.4495 75.9236 38.1503C75.9236 37.6908 75.7589 37.3093 75.4251 36.9972C75.0956 36.6937 74.6881 36.5376 74.2025 36.5376Z" fill="#F2F2F2"/>
<path d="M81.9283 36.9706L81.4861 37.222C81.1002 36.7582 80.58 36.5241 79.9167 36.5241C79.3878 36.5241 78.9456 36.6801 78.5945 36.9923C78.2433 37.3044 78.0699 37.6816 78.0699 38.1238C78.0699 38.4142 78.1523 38.683 78.3127 38.9388C78.4731 39.1946 78.6942 39.3897 78.976 39.5327C79.2578 39.6758 79.5742 39.7452 79.9211 39.7452C80.5583 39.7452 81.0829 39.5111 81.4861 39.0472L81.9283 39.3116C81.7202 39.5978 81.4427 39.8189 81.0916 39.9749C80.7404 40.131 80.3416 40.209 79.895 40.209C79.2057 40.209 78.6378 40.0096 78.1826 39.6108C77.7274 39.2119 77.502 38.7264 77.502 38.1541C77.502 37.7683 77.6103 37.4128 77.8184 37.0833C78.0265 36.7538 78.3213 36.4981 78.6942 36.3116C79.0627 36.1252 79.4789 36.0342 79.9384 36.0342C80.2289 36.0342 80.5063 36.0732 80.7708 36.1556C81.0396 36.2336 81.265 36.342 81.4514 36.4677C81.6378 36.6064 81.7982 36.7712 81.9283 36.9706Z" fill="#F2F2F2"/>
<path d="M83.4935 34.6729H84.0527V36.1468H84.9415V36.589H84.0527V40.1136H83.4935V36.589H82.7305V36.1468H83.4935V34.6729Z" fill="#F2F2F2"/>
<path d="M87.46 36.1475H88.0366L89.3718 39.0304L90.7591 36.1475H90.8588L92.2591 39.0304L93.6204 36.1475H94.2013L92.3111 40.1142H92.2071L90.8155 37.2746L89.4238 40.1142H89.3198L87.46 36.1475Z" fill="#F2F2F2"/>
<path d="M95.0513 34.5127C95.1771 34.5127 95.2855 34.5561 95.3765 34.6384C95.4675 34.7208 95.5109 34.8205 95.5109 34.9376C95.5109 35.0503 95.4675 35.15 95.3765 35.2323C95.2855 35.3147 95.1771 35.3581 95.0513 35.3581C94.9256 35.3581 94.8172 35.3191 94.7262 35.2323C94.6351 35.15 94.5918 35.0503 94.5918 34.9376C94.5918 34.8205 94.6351 34.7208 94.7262 34.6384C94.8216 34.5561 94.93 34.5127 95.0513 34.5127ZM94.7739 36.1471H95.3331V40.1139H94.7739V36.1471Z" fill="#F2F2F2"/>
<path d="M96.9886 34.6729H97.5479V36.1468H98.4366V36.589H97.5479V40.1136H96.9886V36.589H96.2256V36.1468H96.9886V34.6729Z" fill="#F2F2F2"/>
<path d="M99.2773 34.6172H99.8366V36.8585C100.062 36.5854 100.313 36.3816 100.587 36.2472C100.86 36.1128 101.155 36.0435 101.471 36.0435C101.796 36.0435 102.087 36.1172 102.338 36.2689C102.589 36.4207 102.776 36.6244 102.897 36.8759C103.019 37.1316 103.079 37.5261 103.079 38.0681V40.11H102.52V38.2154C102.52 37.7602 102.498 37.4524 102.459 37.3007C102.39 37.0363 102.264 36.8412 102.082 36.7068C101.9 36.5724 101.662 36.5074 101.363 36.5074C101.024 36.5074 100.721 36.6114 100.452 36.8152C100.183 37.0189 100.006 37.2704 99.9233 37.5738C99.8713 37.7689 99.8453 38.1287 99.8453 38.6533V40.11H99.2773V34.6172Z" fill="#F2F2F2"/>
<path d="M106.076 36.1475H106.67L108.166 39.2038L109.618 36.1475H110.216L107.62 41.5665H107.03L107.867 39.8151L106.076 36.1475Z" fill="#F2F2F2"/>
<path d="M112.999 36.043C113.671 36.043 114.226 36.2641 114.668 36.7063C115.067 37.1094 115.271 37.5863 115.271 38.1412C115.271 38.6961 115.058 39.1817 114.638 39.5935C114.213 40.0097 113.671 40.2135 113.004 40.2135C112.336 40.2135 111.79 40.0054 111.365 39.5935C110.94 39.1774 110.728 38.6961 110.728 38.1412C110.728 37.5907 110.927 37.1138 111.33 36.7106C111.768 36.2684 112.323 36.043 112.999 36.043ZM112.995 36.5458C112.531 36.5458 112.128 36.7019 111.794 37.0184C111.46 37.3349 111.291 37.712 111.291 38.1542C111.291 38.4404 111.369 38.7091 111.521 38.9563C111.673 39.2034 111.881 39.3941 112.141 39.5285C112.401 39.6629 112.687 39.7323 112.995 39.7323C113.307 39.7323 113.589 39.6629 113.849 39.5285C114.109 39.3941 114.313 39.2034 114.469 38.9563C114.621 38.7091 114.699 38.4404 114.699 38.1542C114.699 37.7077 114.53 37.3305 114.196 37.0184C113.862 36.7063 113.459 36.5458 112.995 36.5458Z" fill="#F2F2F2"/>
<path d="M116.229 36.1469H116.788V37.9981C116.788 38.4489 116.814 38.7611 116.871 38.9301C116.949 39.1729 117.105 39.3637 117.33 39.5067C117.556 39.6498 117.824 39.7192 118.136 39.7192C118.449 39.7192 118.713 39.6498 118.93 39.5111C119.147 39.3724 119.298 39.1946 119.381 38.9692C119.437 38.8174 119.463 38.4923 119.463 37.9937V36.1426H120.035V38.0891C120.035 38.6353 119.966 39.0472 119.823 39.3247C119.684 39.6021 119.472 39.8189 119.19 39.9749C118.908 40.131 118.557 40.2091 118.132 40.2091C117.707 40.2091 117.356 40.131 117.07 39.9749C116.784 39.8189 116.576 39.5978 116.433 39.3203C116.294 39.0385 116.225 38.618 116.225 38.0544V36.1469H116.229Z" fill="#F2F2F2"/>
<path d="M121.071 36.1476H121.644V36.7285C121.813 36.4987 121.995 36.3296 122.185 36.2169C122.376 36.1042 122.571 36.0479 122.779 36.0479C122.935 36.0479 123.1 36.0912 123.274 36.1822L122.983 36.6114C122.866 36.5638 122.766 36.5421 122.688 36.5421C122.502 36.5421 122.32 36.6114 122.146 36.7502C121.973 36.8889 121.843 37.1057 121.752 37.4005C121.683 37.6259 121.648 38.0854 121.648 38.7704V40.1143H121.076V36.1476H121.071Z" fill="#F2F2F2"/>
<path d="M126.113 40.1141V34.7471H126.243L130.162 38.8612V34.7471H130.743V40.1141H130.613L126.729 36.052V40.1141H126.113Z" fill="#F2F2F2"/>
<path d="M132.169 34.751H135.117V35.2755H132.755V36.9576H135.117V37.4822H132.755V40.1137H132.165V34.751H132.169Z" fill="#F2F2F2"/>
<path d="M135.56 35.2755V34.751H138.785V35.2755H137.471V40.1137H136.873V35.2755H135.56Z" fill="#F2F2F2"/>
<path d="M141.729 36.5802L141.369 36.9183C141.07 36.6539 140.775 36.5195 140.489 36.5195C140.307 36.5195 140.151 36.5759 140.02 36.6842C139.89 36.7926 139.825 36.9227 139.825 37.0657C139.825 37.1958 139.877 37.3172 139.986 37.4342C140.094 37.5513 140.315 37.6944 140.658 37.8548C141.074 38.0498 141.36 38.2406 141.507 38.4227C141.655 38.6091 141.729 38.8172 141.729 39.047C141.729 39.3721 141.603 39.6496 141.351 39.875C141.1 40.1004 140.788 40.2131 140.411 40.2131C140.159 40.2131 139.921 40.1611 139.691 40.0657C139.461 39.966 139.275 39.8273 139.123 39.6539L139.474 39.2897C139.76 39.5845 140.064 39.7319 140.385 39.7319C140.61 39.7319 140.801 39.6669 140.957 39.5368C141.113 39.4068 141.195 39.2507 141.195 39.073C141.195 38.9256 141.143 38.7955 141.039 38.6828C140.935 38.5701 140.701 38.4313 140.333 38.2579C139.938 38.0715 139.674 37.8894 139.531 37.7117C139.387 37.5339 139.318 37.3259 139.318 37.0961C139.318 36.7926 139.431 36.5455 139.656 36.3461C139.882 36.1467 140.168 36.047 140.51 36.047C140.918 36.0426 141.325 36.2247 141.729 36.5802Z" fill="#F2F2F2"/>
</g>
<defs>
<clipPath id="clip0_58_1682">
<rect width="150" height="54.6243" fill="white"/>
</clipPath>
<clipPath id="clip1_58_1682">
<rect width="150" height="54.6243" fill="white" transform="translate(0 0.000976562)"/>
</clipPath>
</defs>
</svg>
