<svg width="158" height="63" viewBox="0 0 158 63" fill="none" xmlns="http://www.w3.org/2000/svg">
<g clip-path="url(#clip0_631_48)" filter="url(#filter0_d_631_48)">
<path d="M49.1604 10.4869L33.1546 1.24407C30.4191 -0.333962 27.0506 -0.333962 24.315 1.24407L8.30923 10.4869C5.57368 12.0649 3.8916 14.9825 3.8916 18.1429V36.6285C3.8916 39.7845 5.57802 42.7022 8.30923 44.2845L24.315 53.5273C27.0506 55.1054 30.4191 55.1054 33.1546 53.5273L49.1604 44.2845C51.896 42.7065 53.578 39.7889 53.578 36.6285V18.1429C53.5824 14.9825 51.896 12.0649 49.1604 10.4869ZM28.7326 49.1747C16.698 49.1747 6.93929 39.416 6.93929 27.3814C6.93929 15.3467 16.698 5.58801 28.7326 5.58801C40.7673 5.58801 50.526 15.3467 50.526 27.3814C50.526 39.416 40.7717 49.1747 28.7326 49.1747Z" fill="#D3D3D3"/>
<path d="M38.591 16.0056H33.0982V21.6458H21.3323V16.0056H15.8396V21.6458H11.7471V27.1212H15.8396V33.7498C15.8396 35.5663 16.2644 36.9406 17.1141 37.8683C17.9638 38.7961 19.2948 39.2599 21.1112 39.2599H30.6011V33.9666H22.5159C22.13 33.9666 21.8352 33.8279 21.6358 33.5547C21.4364 33.2816 21.3367 32.8915 21.3367 32.3842V27.1212H33.1026V33.7498C33.1026 35.5663 33.5274 36.9406 34.3771 37.8683C35.2268 38.7961 36.5578 39.2599 38.3742 39.2599H43.9884V33.9666H39.7789C39.393 33.9666 39.0982 33.8279 38.8988 33.5547C38.6994 33.2816 38.5997 32.8915 38.5997 32.3842V27.1212H43.9927V21.6458H38.5997V16.0056H38.591Z" fill="#D3D3D3"/>
<g clip-path="url(#clip1_631_48)">
<path d="M49.1604 10.4873L33.1546 1.24456C30.4191 -0.333474 27.0506 -0.333474 24.315 1.24456L8.30923 10.4873C5.57368 12.0654 3.8916 14.983 3.8916 18.1434V36.629C3.8916 39.785 5.57802 42.7027 8.30923 44.285L24.315 53.5278C27.0506 55.1059 30.4191 55.1059 33.1546 53.5278L49.1604 44.285C51.896 42.707 53.578 39.7894 53.578 36.629V18.1434C53.5824 14.983 51.896 12.0654 49.1604 10.4873ZM28.7326 49.1752C16.698 49.1752 6.93929 39.4165 6.93929 27.3819C6.93929 15.3472 16.698 5.5885 28.7326 5.5885C40.7673 5.5885 50.526 15.3472 50.526 27.3819C50.526 39.4165 40.7717 49.1752 28.7326 49.1752Z" fill="#D3D3D3"/>
<path d="M38.591 16.0061H33.0982V21.6463H21.3323V16.0061H15.8396V21.6463H11.7471V27.1217H15.8396V33.7503C15.8396 35.5668 16.2644 36.9411 17.1141 37.8688C17.9638 38.7966 19.2948 39.2604 21.1112 39.2604H30.6011V33.9671H22.5159C22.13 33.9671 21.8352 33.8284 21.6358 33.5552C21.4364 33.2821 21.3367 32.8919 21.3367 32.3847V27.1217H33.1026V33.7503C33.1026 35.5668 33.5274 36.9411 34.3771 37.8688C35.2268 38.7966 36.5578 39.2604 38.3742 39.2604H43.9884V33.9671H39.7789C39.393 33.9671 39.0982 33.8284 38.8988 33.5552C38.6994 33.2821 38.5997 32.8919 38.5997 32.3847V27.1217H43.9927V21.6463H38.5997V16.0061H38.591Z" fill="#D3D3D3"/>
<path d="M62.8514 27.0658C62.7127 26.875 62.6433 26.6019 62.6433 26.2464V22.5701V18.7421V15.0354H58.8066V27.612C58.8066 28.8822 59.1014 29.4285 59.6954 30.0788C60.2893 30.7291 61.2214 31.0499 62.4873 31.0499H69.1159V27.3519H63.467C63.1983 27.3562 62.9945 27.2565 62.8514 27.0658Z" fill="#D3D3D3"/>
<path d="M99.4241 15.0527H95.5874V18.9935H90.3894V15.0527H86.5527V18.9935H83.6914V22.8215H86.5527V27.2045C86.5527 28.4747 86.8475 29.4328 87.4414 30.0831C88.0353 30.7334 88.9674 31.0542 90.2333 31.0542H94.3908V27.3562H91.2131C90.9443 27.3562 90.7362 27.2608 90.5975 27.0701C90.4587 26.8793 90.3894 26.6062 90.3894 26.2507V22.8215H95.5874V27.2045C95.5874 28.4747 95.8822 29.4328 96.4761 30.0831C97.07 30.7334 98.0021 31.0542 99.268 31.0542H103.191V27.3562H100.248C99.979 27.3562 99.7709 27.2608 99.6322 27.0701C99.4934 26.8793 99.4241 26.6062 99.4241 26.2507V22.8215H103.191V18.9935H99.4241V15.0527Z" fill="#D3D3D3"/>
<path d="M113.782 27.0658C113.643 26.875 113.574 26.6019 113.574 26.2464V22.5701V18.7421V15.0354H109.737V18.7421V22.5701V27.2001C109.737 28.4704 110.032 29.4285 110.626 30.0788C111.22 30.7291 112.152 31.0499 113.418 31.0499H117.341V27.3519H114.398C114.129 27.3562 113.925 27.2565 113.782 27.0658Z" fill="#D3D3D3"/>
<path d="M79.6589 18.1264C78.7442 17.6278 77.643 17.3721 76.3814 17.3721C75.1199 17.3721 74.0187 17.6235 73.1083 18.1264C72.1719 18.638 71.4523 19.3923 70.9624 20.3634C70.4855 21.3085 70.2471 22.453 70.2471 23.7536V24.6163C70.2471 25.9385 70.4898 27.0917 70.9624 28.0455C71.4523 29.0296 72.1719 29.7883 73.1083 30.3041C74.0231 30.807 75.1242 31.0672 76.3858 31.0672C77.6473 31.0672 78.7485 30.8114 79.6632 30.3085C80.5953 29.7926 81.3193 29.0383 81.8092 28.0628C82.2861 27.1134 82.5245 25.9689 82.5245 24.6596V23.7579C82.5245 22.4573 82.2817 21.3172 81.8092 20.3677C81.3106 19.3923 80.591 18.638 79.6589 18.1264ZM78.6358 23.7579V24.6596C78.6358 25.5354 78.4364 26.2117 78.0375 26.6669C77.656 27.1004 77.1141 27.3128 76.3814 27.3128C75.6488 27.3128 75.1069 27.1004 74.7254 26.6669C74.3309 26.2117 74.1271 25.5354 74.1271 24.6596V23.7579C74.1271 22.8822 74.3265 22.2146 74.7211 21.768C75.1026 21.3388 75.6445 21.1307 76.3814 21.1307C77.1184 21.1307 77.6604 21.3388 78.0419 21.768C78.4364 22.2146 78.6358 22.8822 78.6358 23.7579Z" fill="#D3D3D3"/>
<path d="M122.387 15.0354H118.503V18.2652H122.387V15.0354Z" fill="#D3D3D3"/>
<path d="M118.503 31.0716H122.387L122.405 18.9849H118.52L118.503 31.0716Z" fill="#D3D3D3"/>
<path d="M107.999 27.2649L107.045 26.7143C106.69 26.5106 106.248 26.5106 105.892 26.7143L104.943 27.2649C104.587 27.4687 104.366 27.8545 104.366 28.2664V29.3675C104.366 29.7794 104.587 30.1609 104.943 30.369L105.892 30.9195C106.07 31.0236 106.269 31.0756 106.469 31.0756C106.668 31.0756 106.868 31.0236 107.045 30.9195L107.999 30.369C108.355 30.1652 108.576 29.7794 108.576 29.3675V28.2664C108.576 27.8545 108.355 27.4687 107.999 27.2649Z" fill="#D3D3D3"/>
<path d="M132.94 19.9559C132.207 19.3099 131.188 18.9805 129.909 18.9805H127.724C126.445 18.9805 125.427 19.3099 124.694 19.9559C123.94 20.6235 123.554 21.56 123.554 22.7391V31.0672H127.308V23.7926C127.308 23.242 127.486 22.8649 128.262 22.8649H129.463C130.2 22.8649 130.321 23.3808 130.321 23.7839V31.0672H134.075V22.7391C134.08 21.56 133.698 20.6235 132.94 19.9559Z" fill="#D3D3D3"/>
<path d="M144.632 23.8663C144.112 23.4111 143.453 23.112 142.66 22.9776L146.795 18.9155H141.918L139.139 21.5123V15.0354H135.255V31.0672H139.009V27.4776C139.009 26.9747 139.373 26.7796 139.746 26.7796H141.259C141.758 26.7796 142.018 27.0051 142.018 27.4776V31.0672H145.772V26.6496C145.772 25.4704 145.391 24.534 144.632 23.8663Z" fill="#D3D3D3"/>
<path d="M59.0929 34.5134C59.2186 34.5134 59.3313 34.5568 59.418 34.6392C59.5091 34.7215 59.5524 34.8212 59.5524 34.9383C59.5524 35.051 59.5091 35.1507 59.418 35.2331C59.327 35.3155 59.2186 35.3588 59.0929 35.3588C58.9672 35.3588 58.8588 35.3198 58.7721 35.2331C58.681 35.1507 58.6377 35.051 58.6377 34.9383C58.6377 34.8212 58.681 34.7215 58.7721 34.6392C58.8588 34.5568 58.9672 34.5134 59.0929 34.5134ZM58.8154 36.1478H59.3747V40.1146H58.8154V36.1478Z" fill="#D3D3D3"/>
<path d="M60.541 36.1477H61.1003V36.8587C61.3257 36.5856 61.5728 36.3818 61.8459 36.2474C62.119 36.1131 62.4138 36.0437 62.7347 36.0437C63.0598 36.0437 63.3503 36.1174 63.6017 36.2691C63.8531 36.4209 64.0396 36.6246 64.1609 36.8804C64.2823 37.1362 64.343 37.535 64.343 38.0726V40.1145H63.7838V38.22C63.7838 37.7648 63.7621 37.457 63.7231 37.3052C63.6581 37.0408 63.5323 36.8457 63.3503 36.7113C63.1682 36.5769 62.9254 36.5119 62.6306 36.5119C62.2924 36.5119 61.989 36.6159 61.7202 36.8197C61.4514 37.0235 61.2737 37.2749 61.1913 37.5784C61.1393 37.7735 61.1133 38.1333 61.1133 38.6579V40.1145H60.554V36.1477H60.541Z" fill="#D3D3D3"/>
<path d="M66.0247 34.6738H66.584V36.1478H67.4727V36.59H66.584V40.1146H66.0247V36.59H65.2617V36.1478H66.0247V34.6738Z" fill="#D3D3D3"/>
<path d="M71.9777 38.801L72.4503 39.0265C72.2942 39.3039 72.1164 39.5294 71.9127 39.6984C71.7089 39.8675 71.4835 39.9976 71.2277 40.0886C70.9763 40.1753 70.6858 40.223 70.365 40.223C69.654 40.223 69.0991 40.0106 68.7003 39.5857C68.3014 39.1609 68.0977 38.684 68.0977 38.1464C68.0977 37.6435 68.2667 37.1927 68.6049 36.8025C69.0341 36.2996 69.6107 36.0525 70.3303 36.0525C71.0716 36.0525 71.6656 36.3083 72.1078 36.8242C72.4242 37.1883 72.5846 37.6392 72.589 38.1811H68.6699C68.6786 38.6406 68.8433 39.0178 69.1555 39.3126C69.4676 39.6074 69.8534 39.7548 70.313 39.7548C70.5341 39.7548 70.7508 39.7201 70.9589 39.6508C71.167 39.5814 71.3491 39.486 71.4922 39.369C71.6482 39.2476 71.8086 39.0568 71.9777 38.801ZM71.9777 37.7302C71.904 37.4571 71.7956 37.2403 71.6526 37.0756C71.5095 36.9109 71.3187 36.7808 71.0846 36.6811C70.8505 36.5814 70.6034 36.5337 70.3433 36.5337C69.9141 36.5337 69.55 36.6594 69.2422 36.9109C69.0167 37.093 68.8477 37.3661 68.7349 37.7302H71.9777Z" fill="#D3D3D3"/>
<path d="M73.4258 36.1478H73.998V36.7287C74.1671 36.499 74.3492 36.3299 74.5399 36.2172C74.7307 36.1045 74.9258 36.0481 75.1339 36.0481C75.2899 36.0481 75.4547 36.0914 75.6281 36.1825L75.3376 36.6117C75.2206 36.564 75.1209 36.5423 75.0428 36.5423C74.8564 36.5423 74.6743 36.6117 74.5009 36.7504C74.3275 36.8891 74.1975 37.1059 74.1064 37.4007C74.037 37.6261 74.0024 38.0857 74.0024 38.7706V40.1146H73.4301V36.1478H73.4258Z" fill="#D3D3D3"/>
<path d="M80.4395 36.1479V40.1147H79.889V39.4341C79.6549 39.6942 79.3904 39.8893 79.0999 40.0193C78.8095 40.1494 78.4887 40.2144 78.1418 40.2144C77.5262 40.2144 76.9973 40.0107 76.5638 39.6031C76.1303 39.1956 75.9092 38.7014 75.9092 38.1161C75.9092 37.5439 76.1303 37.054 76.5681 36.6508C77.0103 36.2433 77.5392 36.0396 78.1548 36.0396C78.5103 36.0396 78.8355 36.1089 79.126 36.2476C79.4164 36.3864 79.6679 36.5945 79.889 36.8719V36.1436H80.4395V36.1479ZM78.2025 36.5381C77.8904 36.5381 77.6043 36.6075 77.3398 36.7462C77.0754 36.8849 76.8673 37.08 76.7112 37.3358C76.5551 37.5872 76.4771 37.856 76.4771 38.1378C76.4771 38.4153 76.5551 38.6841 76.7112 38.9398C76.8673 39.1956 77.0797 39.395 77.3442 39.5338C77.6086 39.6768 77.8947 39.7462 78.1982 39.7462C78.506 39.7462 78.7965 39.6768 79.0696 39.5338C79.3427 39.3907 79.5551 39.2043 79.7025 38.9615C79.8499 38.7231 79.9236 38.45 79.9236 38.1508C79.9236 37.6913 79.7589 37.3098 79.4251 36.9976C79.0956 36.6942 78.6881 36.5381 78.2025 36.5381Z" fill="#D3D3D3"/>
<path d="M85.9283 36.9716L85.4861 37.223C85.1002 36.7591 84.58 36.525 83.9167 36.525C83.3878 36.525 82.9456 36.6811 82.5945 36.9932C82.2433 37.3054 82.0699 37.6826 82.0699 38.1248C82.0699 38.4152 82.1523 38.684 82.3127 38.9398C82.4731 39.1956 82.6942 39.3907 82.976 39.5337C83.2578 39.6768 83.5742 39.7461 83.9211 39.7461C84.5583 39.7461 85.0829 39.512 85.4861 39.0482L85.9283 39.3126C85.7202 39.5987 85.4427 39.8198 85.0916 39.9759C84.7404 40.132 84.3416 40.21 83.895 40.21C83.2057 40.21 82.6378 40.0106 82.1826 39.6117C81.7274 39.2129 81.502 38.7274 81.502 38.1551C81.502 37.7693 81.6103 37.4138 81.8184 37.0843C82.0265 36.7548 82.3213 36.499 82.6942 36.3126C83.0627 36.1262 83.4789 36.0352 83.9384 36.0352C84.2289 36.0352 84.5063 36.0742 84.7708 36.1565C85.0396 36.2346 85.265 36.343 85.4514 36.4687C85.6378 36.6074 85.7982 36.7722 85.9283 36.9716Z" fill="#D3D3D3"/>
<path d="M87.4935 34.6738H88.0527V36.1478H88.9415V36.59H88.0527V40.1146H87.4935V36.59H86.7305V36.1478H87.4935V34.6738Z" fill="#D3D3D3"/>
<path d="M91.46 36.1479H92.0366L93.3718 39.0309L94.7591 36.1479H94.8588L96.2591 39.0309L97.6204 36.1479H98.2013L96.3111 40.1147H96.2071L94.8155 37.2751L93.4238 40.1147H93.3198L91.46 36.1479Z" fill="#D3D3D3"/>
<path d="M99.0513 34.5134C99.1771 34.5134 99.2854 34.5568 99.3765 34.6392C99.4675 34.7215 99.5109 34.8212 99.5109 34.9383C99.5109 35.051 99.4675 35.1507 99.3765 35.2331C99.2854 35.3155 99.1771 35.3588 99.0513 35.3588C98.9256 35.3588 98.8172 35.3198 98.7262 35.2331C98.6351 35.1507 98.5918 35.051 98.5918 34.9383C98.5918 34.8212 98.6351 34.7215 98.7262 34.6392C98.8216 34.5568 98.9299 34.5134 99.0513 34.5134ZM98.7739 36.1478H99.3331V40.1146H98.7739V36.1478Z" fill="#D3D3D3"/>
<path d="M100.989 34.6738H101.548V36.1478H102.437V36.59H101.548V40.1146H100.989V36.59H100.226V36.1478H100.989V34.6738Z" fill="#D3D3D3"/>
<path d="M103.277 34.6174H103.837V36.8588C104.062 36.5856 104.313 36.3819 104.587 36.2475C104.86 36.1131 105.155 36.0437 105.471 36.0437C105.796 36.0437 106.087 36.1174 106.338 36.2692C106.589 36.4209 106.776 36.6247 106.897 36.8761C107.019 37.1319 107.079 37.5264 107.079 38.0683V40.1102H106.52V38.2157C106.52 37.7605 106.498 37.4527 106.459 37.301C106.39 37.0365 106.264 36.8414 106.082 36.707C105.9 36.5726 105.662 36.5076 105.363 36.5076C105.024 36.5076 104.721 36.6117 104.452 36.8154C104.183 37.0192 104.006 37.2706 103.923 37.5741C103.871 37.7692 103.845 38.129 103.845 38.6536V40.1102H103.277V34.6174Z" fill="#D3D3D3"/>
<path d="M110.076 36.1479H110.67L112.166 39.2043L113.618 36.1479H114.216L111.62 41.567H111.03L111.867 39.8156L110.076 36.1479Z" fill="#D3D3D3"/>
<path d="M116.999 36.0437C117.671 36.0437 118.226 36.2648 118.668 36.707C119.067 37.1102 119.271 37.5871 119.271 38.142C119.271 38.6969 119.058 39.1824 118.638 39.5943C118.213 40.0105 117.671 40.2142 117.004 40.2142C116.336 40.2142 115.79 40.0061 115.365 39.5943C114.94 39.1781 114.728 38.6969 114.728 38.142C114.728 37.5914 114.927 37.1145 115.33 36.7113C115.768 36.2691 116.323 36.0437 116.999 36.0437ZM116.995 36.5466C116.531 36.5466 116.128 36.7027 115.794 37.0191C115.46 37.3356 115.291 37.7128 115.291 38.155C115.291 38.4411 115.369 38.7099 115.521 38.957C115.673 39.2041 115.881 39.3948 116.141 39.5292C116.401 39.6636 116.687 39.733 116.995 39.733C117.307 39.733 117.589 39.6636 117.849 39.5292C118.109 39.3948 118.313 39.2041 118.469 38.957C118.621 38.7099 118.699 38.4411 118.699 38.155C118.699 37.7084 118.53 37.3313 118.196 37.0191C117.862 36.707 117.459 36.5466 116.995 36.5466Z" fill="#D3D3D3"/>
<path d="M120.229 36.1479H120.788V37.999C120.788 38.4499 120.814 38.762 120.871 38.9311C120.949 39.1739 121.105 39.3647 121.33 39.5077C121.556 39.6508 121.824 39.7201 122.136 39.7201C122.449 39.7201 122.713 39.6508 122.93 39.5121C123.147 39.3733 123.298 39.1956 123.381 38.9702C123.437 38.8184 123.463 38.4933 123.463 37.9947V36.1436H124.035V38.0901C124.035 38.6363 123.966 39.0482 123.823 39.3256C123.684 39.6031 123.472 39.8199 123.19 39.9759C122.908 40.132 122.557 40.21 122.132 40.21C121.707 40.21 121.356 40.132 121.07 39.9759C120.784 39.8199 120.576 39.5988 120.433 39.3213C120.294 39.0395 120.225 38.619 120.225 38.0554V36.1479H120.229Z" fill="#D3D3D3"/>
<path d="M125.071 36.1478H125.644V36.7287C125.813 36.499 125.995 36.3299 126.185 36.2172C126.376 36.1045 126.571 36.0481 126.779 36.0481C126.935 36.0481 127.1 36.0914 127.274 36.1825L126.983 36.6117C126.866 36.564 126.766 36.5423 126.688 36.5423C126.502 36.5423 126.32 36.6117 126.146 36.7504C125.973 36.8891 125.843 37.1059 125.752 37.4007C125.683 37.6261 125.648 38.0857 125.648 38.7706V40.1146H125.076V36.1478H125.071Z" fill="#D3D3D3"/>
<path d="M130.113 40.1146V34.7476H130.243L134.162 38.8617V34.7476H134.743V40.1146H134.613L130.729 36.0525V40.1146H130.113Z" fill="#D3D3D3"/>
<path d="M136.169 34.752H139.117V35.2765H136.755V36.9586H139.117V37.4832H136.755V40.1147H136.165V34.752H136.169Z" fill="#D3D3D3"/>
<path d="M139.56 35.2765V34.752H142.785V35.2765H141.471V40.1147H140.873V35.2765H139.56Z" fill="#D3D3D3"/>
<path d="M145.729 36.5814L145.369 36.9196C145.07 36.6551 144.775 36.5207 144.489 36.5207C144.307 36.5207 144.151 36.5771 144.02 36.6855C143.89 36.7938 143.825 36.9239 143.825 37.067C143.825 37.197 143.877 37.3184 143.986 37.4355C144.094 37.5525 144.315 37.6956 144.658 37.856C145.074 38.0511 145.36 38.2418 145.507 38.4239C145.655 38.6103 145.729 38.8184 145.729 39.0482C145.729 39.3733 145.603 39.6508 145.351 39.8762C145.1 40.1016 144.788 40.2144 144.411 40.2144C144.159 40.2144 143.921 40.1623 143.691 40.067C143.461 39.9673 143.275 39.8285 143.123 39.6551L143.474 39.291C143.76 39.5857 144.064 39.7331 144.385 39.7331C144.61 39.7331 144.801 39.6681 144.957 39.5381C145.113 39.408 145.195 39.2519 145.195 39.0742C145.195 38.9268 145.143 38.7967 145.039 38.684C144.935 38.5713 144.701 38.4326 144.333 38.2592C143.938 38.0727 143.674 37.8907 143.531 37.7129C143.387 37.5352 143.318 37.3271 143.318 37.0973C143.318 36.7938 143.431 36.5467 143.656 36.3473C143.882 36.1479 144.168 36.0482 144.51 36.0482C144.918 36.0438 145.325 36.2259 145.729 36.5814Z" fill="#D3D3D3"/>
</g>
<path d="M62.8514 27.0653C62.7127 26.8745 62.6433 26.6014 62.6433 26.2459V22.5696V18.7416V15.0349H58.8066V27.6115C58.8066 28.8817 59.1014 29.428 59.6954 30.0783C60.2893 30.7286 61.2214 31.0494 62.4873 31.0494H69.1159V27.3514H63.467C63.1983 27.3557 62.9945 27.256 62.8514 27.0653Z" fill="#D3D3D3"/>
<path d="M99.4241 15.0522H95.5874V18.993H90.3894V15.0522H86.5527V18.993H83.6914V22.821H86.5527V27.204C86.5527 28.4742 86.8475 29.4323 87.4414 30.0826C88.0353 30.7329 88.9674 31.0537 90.2333 31.0537H94.3908V27.3557H91.2131C90.9443 27.3557 90.7362 27.2603 90.5975 27.0696C90.4587 26.8788 90.3894 26.6057 90.3894 26.2502V22.821H95.5874V27.204C95.5874 28.4742 95.8822 29.4323 96.4761 30.0826C97.07 30.7329 98.0021 31.0537 99.268 31.0537H103.191V27.3557H100.248C99.979 27.3557 99.7709 27.2603 99.6322 27.0696C99.4934 26.8788 99.4241 26.6057 99.4241 26.2502V22.821H103.191V18.993H99.4241V15.0522Z" fill="#D3D3D3"/>
<path d="M113.782 27.0653C113.643 26.8745 113.574 26.6014 113.574 26.2459V22.5696V18.7416V15.0349H109.737V18.7416V22.5696V27.1996C109.737 28.4699 110.032 29.428 110.626 30.0783C111.22 30.7286 112.152 31.0494 113.418 31.0494H117.341V27.3514H114.398C114.129 27.3557 113.925 27.256 113.782 27.0653Z" fill="#D3D3D3"/>
<path d="M79.6589 18.1259C78.7442 17.6274 77.643 17.3716 76.3814 17.3716C75.1199 17.3716 74.0187 17.623 73.1083 18.1259C72.1719 18.6375 71.4523 19.3918 70.9624 20.3629C70.4855 21.308 70.2471 22.4525 70.2471 23.7531V24.6158C70.2471 25.9381 70.4898 27.0912 70.9624 28.045C71.4523 29.0291 72.1719 29.7878 73.1083 30.3037C74.0231 30.8065 75.1242 31.0667 76.3858 31.0667C77.6473 31.0667 78.7485 30.8109 79.6632 30.308C80.5953 29.7921 81.3193 29.0378 81.8092 28.0623C82.2861 27.1129 82.5245 25.9684 82.5245 24.6592V23.7574C82.5245 22.4568 82.2817 21.3167 81.8092 20.3672C81.3106 19.3918 80.591 18.6375 79.6589 18.1259ZM78.6358 23.7574V24.6592C78.6358 25.5349 78.4364 26.2112 78.0375 26.6664C77.656 27.0999 77.1141 27.3123 76.3814 27.3123C75.6488 27.3123 75.1069 27.0999 74.7254 26.6664C74.3309 26.2112 74.1271 25.5349 74.1271 24.6592V23.7574C74.1271 22.8817 74.3265 22.2141 74.7211 21.7675C75.1026 21.3383 75.6445 21.1302 76.3814 21.1302C77.1184 21.1302 77.6604 21.3383 78.0419 21.7675C78.4364 22.2141 78.6358 22.8817 78.6358 23.7574Z" fill="#D3D3D3"/>
<path d="M122.387 15.0349H118.503V18.2647H122.387V15.0349Z" fill="#D3D3D3"/>
<path d="M118.503 31.0711H122.387L122.405 18.9844H118.52L118.503 31.0711Z" fill="#D3D3D3"/>
<path d="M107.999 27.2644L107.045 26.7139C106.69 26.5101 106.248 26.5101 105.892 26.7139L104.943 27.2644C104.587 27.4682 104.366 27.854 104.366 28.2659V29.367C104.366 29.7789 104.587 30.1604 104.943 30.3685L105.892 30.9191C106.07 31.0231 106.269 31.0751 106.469 31.0751C106.668 31.0751 106.868 31.0231 107.045 30.9191L107.999 30.3685C108.355 30.1647 108.576 29.7789 108.576 29.367V28.2659C108.576 27.854 108.355 27.4682 107.999 27.2644Z" fill="#D3D3D3"/>
<path d="M132.94 19.9554C132.207 19.3095 131.188 18.98 129.909 18.98H127.724C126.445 18.98 125.427 19.3095 124.694 19.9554C123.94 20.623 123.554 21.5595 123.554 22.7387V31.0667H127.308V23.7921C127.308 23.2415 127.486 22.8644 128.262 22.8644H129.463C130.2 22.8644 130.321 23.3803 130.321 23.7834V31.0667H134.075V22.7387C134.08 21.5595 133.698 20.623 132.94 19.9554Z" fill="#D3D3D3"/>
<path d="M144.632 23.8658C144.112 23.4106 143.453 23.1115 142.66 22.9771L146.795 18.915H141.918L139.139 21.5118V15.0349H135.255V31.0667H139.009V27.4771C139.009 26.9742 139.373 26.7791 139.746 26.7791H141.259C141.758 26.7791 142.018 27.0046 142.018 27.4771V31.0667H145.772V26.6491C145.772 25.4699 145.391 24.5335 144.632 23.8658Z" fill="#D3D3D3"/>
<path d="M59.0929 34.5129C59.2186 34.5129 59.3313 34.5563 59.418 34.6387C59.5091 34.721 59.5524 34.8207 59.5524 34.9378C59.5524 35.0505 59.5091 35.1502 59.418 35.2326C59.327 35.315 59.2186 35.3583 59.0929 35.3583C58.9672 35.3583 58.8588 35.3193 58.7721 35.2326C58.681 35.1502 58.6377 35.0505 58.6377 34.9378C58.6377 34.8207 58.681 34.721 58.7721 34.6387C58.8588 34.5563 58.9672 34.5129 59.0929 34.5129ZM58.8154 36.1473H59.3747V40.1141H58.8154V36.1473Z" fill="#D3D3D3"/>
<path d="M60.541 36.1473H61.1003V36.8582C61.3257 36.5851 61.5728 36.3814 61.8459 36.247C62.119 36.1126 62.4138 36.0432 62.7347 36.0432C63.0598 36.0432 63.3503 36.1169 63.6017 36.2686C63.8531 36.4204 64.0396 36.6241 64.1609 36.8799C64.2823 37.1357 64.343 37.5345 64.343 38.0721V40.114H63.7838V38.2195C63.7838 37.7643 63.7621 37.4565 63.7231 37.3048C63.6581 37.0403 63.5323 36.8452 63.3503 36.7108C63.1682 36.5764 62.9254 36.5114 62.6306 36.5114C62.2924 36.5114 61.989 36.6155 61.7202 36.8192C61.4514 37.023 61.2737 37.2744 61.1913 37.5779C61.1393 37.773 61.1133 38.1328 61.1133 38.6574V40.114H60.554V36.1473H60.541Z" fill="#D3D3D3"/>
<path d="M66.0247 34.6733H66.584V36.1473H67.4727V36.5895H66.584V40.1141H66.0247V36.5895H65.2617V36.1473H66.0247V34.6733Z" fill="#D3D3D3"/>
<path d="M71.9777 38.8006L72.4503 39.026C72.2942 39.3034 72.1164 39.5289 71.9127 39.698C71.7089 39.867 71.4835 39.9971 71.2277 40.0881C70.9763 40.1748 70.6858 40.2225 70.365 40.2225C69.654 40.2225 69.0991 40.0101 68.7003 39.5852C68.3014 39.1604 68.0977 38.6835 68.0977 38.1459C68.0977 37.643 68.2667 37.1922 68.6049 36.802C69.0341 36.2991 69.6107 36.052 70.3303 36.052C71.0716 36.052 71.6656 36.3078 72.1078 36.8237C72.4242 37.1878 72.5846 37.6387 72.589 38.1806H68.6699C68.6786 38.6402 68.8433 39.0173 69.1555 39.3121C69.4676 39.6069 69.8534 39.7543 70.313 39.7543C70.5341 39.7543 70.7508 39.7196 70.9589 39.6503C71.167 39.5809 71.3491 39.4855 71.4922 39.3685C71.6482 39.2471 71.8086 39.0563 71.9777 38.8006ZM71.9777 37.7297C71.904 37.4566 71.7956 37.2399 71.6526 37.0751C71.5095 36.9104 71.3187 36.7803 71.0846 36.6806C70.8505 36.5809 70.6034 36.5332 70.3433 36.5332C69.9141 36.5332 69.55 36.6589 69.2422 36.9104C69.0167 37.0925 68.8477 37.3656 68.7349 37.7297H71.9777Z" fill="#D3D3D3"/>
<path d="M73.4258 36.1473H73.998V36.7282C74.1671 36.4985 74.3492 36.3294 74.5399 36.2167C74.7307 36.104 74.9258 36.0476 75.1339 36.0476C75.2899 36.0476 75.4547 36.091 75.6281 36.182L75.3376 36.6112C75.2206 36.5635 75.1209 36.5418 75.0428 36.5418C74.8564 36.5418 74.6743 36.6112 74.5009 36.7499C74.3275 36.8886 74.1975 37.1054 74.1064 37.4002C74.037 37.6256 74.0024 38.0852 74.0024 38.7701V40.1141H73.4301V36.1473H73.4258Z" fill="#D3D3D3"/>
<path d="M80.4395 36.1474V40.1142H79.889V39.4336C79.6549 39.6937 79.3904 39.8888 79.0999 40.0188C78.8095 40.1489 78.4887 40.2139 78.1418 40.2139C77.5262 40.2139 76.9973 40.0102 76.5638 39.6026C76.1303 39.1951 75.9092 38.7009 75.9092 38.1157C75.9092 37.5434 76.1303 37.0535 76.5681 36.6503C77.0103 36.2428 77.5392 36.0391 78.1548 36.0391C78.5103 36.0391 78.8355 36.1084 79.126 36.2471C79.4164 36.3859 79.6679 36.594 79.889 36.8714V36.1431H80.4395V36.1474ZM78.2025 36.5376C77.8904 36.5376 77.6043 36.607 77.3398 36.7457C77.0754 36.8844 76.8673 37.0795 76.7112 37.3353C76.5551 37.5867 76.4771 37.8555 76.4771 38.1373C76.4771 38.4148 76.5551 38.6836 76.7112 38.9394C76.8673 39.1951 77.0797 39.3946 77.3442 39.5333C77.6086 39.6763 77.8947 39.7457 78.1982 39.7457C78.506 39.7457 78.7965 39.6763 79.0696 39.5333C79.3427 39.3902 79.5551 39.2038 79.7025 38.961C79.8499 38.7226 79.9236 38.4495 79.9236 38.1503C79.9236 37.6908 79.7589 37.3093 79.4251 36.9972C79.0956 36.6937 78.6881 36.5376 78.2025 36.5376Z" fill="#D3D3D3"/>
<path d="M85.9283 36.9711L85.4861 37.2225C85.1002 36.7587 84.58 36.5246 83.9167 36.5246C83.3878 36.5246 82.9456 36.6806 82.5945 36.9928C82.2433 37.3049 82.0699 37.6821 82.0699 38.1243C82.0699 38.4147 82.1523 38.6835 82.3127 38.9393C82.4731 39.1951 82.6942 39.3902 82.976 39.5332C83.2578 39.6763 83.5742 39.7457 83.9211 39.7457C84.5583 39.7457 85.0829 39.5116 85.4861 39.0477L85.9283 39.3121C85.7202 39.5983 85.4427 39.8193 85.0916 39.9754C84.7404 40.1315 84.3416 40.2095 83.895 40.2095C83.2057 40.2095 82.6378 40.0101 82.1826 39.6113C81.7274 39.2124 81.502 38.7269 81.502 38.1546C81.502 37.7688 81.6103 37.4133 81.8184 37.0838C82.0265 36.7543 82.3213 36.4985 82.6942 36.3121C83.0627 36.1257 83.4789 36.0347 83.9384 36.0347C84.2289 36.0347 84.5063 36.0737 84.7708 36.1561C85.0396 36.2341 85.265 36.3425 85.4514 36.4682C85.6378 36.6069 85.7982 36.7717 85.9283 36.9711Z" fill="#D3D3D3"/>
<path d="M87.4935 34.6733H88.0527V36.1473H88.9415V36.5895H88.0527V40.1141H87.4935V36.5895H86.7305V36.1473H87.4935V34.6733Z" fill="#D3D3D3"/>
<path d="M91.46 36.1475H92.0366L93.3718 39.0304L94.7591 36.1475H94.8588L96.2591 39.0304L97.6204 36.1475H98.2013L96.3111 40.1142H96.2071L94.8155 37.2746L93.4238 40.1142H93.3198L91.46 36.1475Z" fill="#D3D3D3"/>
<path d="M99.0513 34.5129C99.1771 34.5129 99.2854 34.5563 99.3765 34.6387C99.4675 34.721 99.5109 34.8207 99.5109 34.9378C99.5109 35.0505 99.4675 35.1502 99.3765 35.2326C99.2854 35.315 99.1771 35.3583 99.0513 35.3583C98.9256 35.3583 98.8172 35.3193 98.7262 35.2326C98.6351 35.1502 98.5918 35.0505 98.5918 34.9378C98.5918 34.8207 98.6351 34.721 98.7262 34.6387C98.8216 34.5563 98.9299 34.5129 99.0513 34.5129ZM98.7739 36.1473H99.3331V40.1141H98.7739V36.1473Z" fill="#D3D3D3"/>
<path d="M100.989 34.6733H101.548V36.1473H102.437V36.5895H101.548V40.1141H100.989V36.5895H100.226V36.1473H100.989V34.6733Z" fill="#D3D3D3"/>
<path d="M103.277 34.6169H103.837V36.8583C104.062 36.5851 104.313 36.3814 104.587 36.247C104.86 36.1126 105.155 36.0432 105.471 36.0432C105.796 36.0432 106.087 36.1169 106.338 36.2687C106.589 36.4204 106.776 36.6242 106.897 36.8756C107.019 37.1314 107.079 37.5259 107.079 38.0678V40.1097H106.52V38.2152C106.52 37.76 106.498 37.4522 106.459 37.3005C106.39 37.036 106.264 36.8409 106.082 36.7065C105.9 36.5721 105.662 36.5071 105.363 36.5071C105.024 36.5071 104.721 36.6112 104.452 36.8149C104.183 37.0187 104.006 37.2701 103.923 37.5736C103.871 37.7687 103.845 38.1285 103.845 38.6531V40.1097H103.277V34.6169Z" fill="#D3D3D3"/>
<path d="M110.076 36.1475H110.67L112.166 39.2038L113.618 36.1475H114.216L111.62 41.5665H111.03L111.867 39.8151L110.076 36.1475Z" fill="#D3D3D3"/>
<path d="M116.999 36.0432C117.671 36.0432 118.226 36.2643 118.668 36.7065C119.067 37.1097 119.271 37.5866 119.271 38.1415C119.271 38.6964 119.058 39.1819 118.638 39.5938C118.213 40.01 117.671 40.2137 117.004 40.2137C116.336 40.2137 115.79 40.0056 115.365 39.5938C114.94 39.1776 114.728 38.6964 114.728 38.1415C114.728 37.5909 114.927 37.114 115.33 36.7108C115.768 36.2686 116.323 36.0432 116.999 36.0432ZM116.995 36.5461C116.531 36.5461 116.128 36.7022 115.794 37.0186C115.46 37.3351 115.291 37.7123 115.291 38.1545C115.291 38.4406 115.369 38.7094 115.521 38.9565C115.673 39.2036 115.881 39.3944 116.141 39.5288C116.401 39.6631 116.687 39.7325 116.995 39.7325C117.307 39.7325 117.589 39.6631 117.849 39.5288C118.109 39.3944 118.313 39.2036 118.469 38.9565C118.621 38.7094 118.699 38.4406 118.699 38.1545C118.699 37.708 118.53 37.3308 118.196 37.0186C117.862 36.7065 117.459 36.5461 116.995 36.5461Z" fill="#D3D3D3"/>
<path d="M120.229 36.1474H120.788V37.9986C120.788 38.4494 120.814 38.7616 120.871 38.9306C120.949 39.1734 121.105 39.3642 121.33 39.5072C121.556 39.6503 121.824 39.7197 122.136 39.7197C122.449 39.7197 122.713 39.6503 122.93 39.5116C123.147 39.3728 123.298 39.1951 123.381 38.9697C123.437 38.8179 123.463 38.4928 123.463 37.9942V36.1431H124.035V38.0896C124.035 38.6358 123.966 39.0477 123.823 39.3251C123.684 39.6026 123.472 39.8194 123.19 39.9754C122.908 40.1315 122.557 40.2095 122.132 40.2095C121.707 40.2095 121.356 40.1315 121.07 39.9754C120.784 39.8194 120.576 39.5983 120.433 39.3208C120.294 39.039 120.225 38.6185 120.225 38.0549V36.1474H120.229Z" fill="#D3D3D3"/>
<path d="M125.071 36.1473H125.644V36.7282C125.813 36.4985 125.995 36.3294 126.185 36.2167C126.376 36.104 126.571 36.0476 126.779 36.0476C126.935 36.0476 127.1 36.091 127.274 36.182L126.983 36.6112C126.866 36.5635 126.766 36.5418 126.688 36.5418C126.502 36.5418 126.32 36.6112 126.146 36.7499C125.973 36.8886 125.843 37.1054 125.752 37.4002C125.683 37.6256 125.648 38.0852 125.648 38.7701V40.1141H125.076V36.1473H125.071Z" fill="#D3D3D3"/>
<path d="M130.113 40.1141V34.7471H130.243L134.162 38.8612V34.7471H134.743V40.1141H134.613L130.729 36.052V40.1141H130.113Z" fill="#D3D3D3"/>
<path d="M136.169 34.7515H139.117V35.276H136.755V36.9581H139.117V37.4827H136.755V40.1142H136.165V34.7515H136.169Z" fill="#D3D3D3"/>
<path d="M139.56 35.276V34.7515H142.785V35.276H141.471V40.1142H140.873V35.276H139.56Z" fill="#D3D3D3"/>
<path d="M145.729 36.5809L145.369 36.9191C145.07 36.6546 144.775 36.5202 144.489 36.5202C144.307 36.5202 144.151 36.5766 144.02 36.685C143.89 36.7933 143.825 36.9234 143.825 37.0665C143.825 37.1965 143.877 37.3179 143.986 37.435C144.094 37.552 144.315 37.6951 144.658 37.8555C145.074 38.0506 145.36 38.2413 145.507 38.4234C145.655 38.6098 145.729 38.8179 145.729 39.0477C145.729 39.3728 145.603 39.6503 145.351 39.8757C145.1 40.1012 144.788 40.2139 144.411 40.2139C144.159 40.2139 143.921 40.1619 143.691 40.0665C143.461 39.9668 143.275 39.828 143.123 39.6546L143.474 39.2905C143.76 39.5853 144.064 39.7327 144.385 39.7327C144.61 39.7327 144.801 39.6676 144.957 39.5376C145.113 39.4075 145.195 39.2514 145.195 39.0737C145.195 38.9263 145.143 38.7962 145.039 38.6835C144.935 38.5708 144.701 38.4321 144.333 38.2587C143.938 38.0723 143.674 37.8902 143.531 37.7124C143.387 37.5347 143.318 37.3266 143.318 37.0968C143.318 36.7934 143.431 36.5462 143.656 36.3468C143.882 36.1474 144.168 36.0477 144.51 36.0477C144.918 36.0433 145.325 36.2254 145.729 36.5809Z" fill="#D3D3D3"/>
</g>
<defs>
<filter id="filter0_d_631_48" x="0" y="0" width="158" height="62.6243" filterUnits="userSpaceOnUse" color-interpolation-filters="sRGB">
<feFlood flood-opacity="0" result="BackgroundImageFix"/>
<feColorMatrix in="SourceAlpha" type="matrix" values="0 0 0 0 0 0 0 0 0 0 0 0 0 0 0 0 0 0 127 0" result="hardAlpha"/>
<feOffset dy="4"/>
<feGaussianBlur stdDeviation="2"/>
<feComposite in2="hardAlpha" operator="out"/>
<feColorMatrix type="matrix" values="0 0 0 0 0 0 0 0 0 0 0 0 0 0 0 0 0 0 0.25 0"/>
<feBlend mode="normal" in2="BackgroundImageFix" result="effect1_dropShadow_631_48"/>
<feBlend mode="normal" in="SourceGraphic" in2="effect1_dropShadow_631_48" result="shape"/>
</filter>
<clipPath id="clip0_631_48">
<rect width="150" height="54.6243" fill="white" transform="translate(4)"/>
</clipPath>
<clipPath id="clip1_631_48">
<rect width="150" height="54.6243" fill="white" transform="translate(4 0.000488281)"/>
</clipPath>
</defs>
</svg>
