<svg width="53" height="53" viewBox="0 0 53 53" fill="none" xmlns="http://www.w3.org/2000/svg">
<path d="M46.75 26.5C46.75 37.6838 37.6838 46.75 26.5 46.75C15.3162 46.75 6.24999 37.6838 6.25 26.5C6.25 15.3162 15.3162 6.25 26.5 6.25C37.6838 6.25001 46.75 15.3162 46.75 26.5Z" stroke="#040457" stroke-width="0.5"/>
<path d="M52 26.5C52 40.5833 40.5833 52 26.5 52C12.4167 52 0.999993 40.5833 0.999995 26.5C0.999998 12.4167 12.4167 1 26.5 1C40.5833 1.00001 52 12.4167 52 26.5Z" stroke="#040457" stroke-width="2"/>
<path d="M17.008 29.066L17.008 22.514C17.008 20.558 17.986 19.58 19.942 19.58L22.462 19.58C24.418 19.58 25.396 20.558 25.396 22.514L25.396 29.066C25.396 31.022 24.418 32 22.462 32L19.942 32C17.986 32 17.008 31.022 17.008 29.066ZM19.222 29.228C19.222 29.744 19.48 30.002 19.996 30.002L22.408 30.002C22.924 30.002 23.182 29.744 23.182 29.228L23.182 22.352C23.182 21.836 22.924 21.578 22.408 21.578L19.996 21.578C19.48 21.578 19.222 21.836 19.222 22.352L19.222 29.228ZM27.5942 31.172L27.5942 30.002L32.8142 30.002C33.3302 30.002 33.5882 29.744 33.5882 29.228L33.5882 27.338C33.5882 26.822 33.3302 26.564 32.8142 26.564L28.9262 26.564L28.9262 24.566L32.8142 24.566C33.3302 24.566 33.5882 24.302 33.5882 23.774L33.5882 22.352C33.5882 21.836 33.3302 21.578 32.8142 21.578L27.7742 21.578L27.7742 20.408L28.8362 19.58L32.8682 19.58C34.8242 19.58 35.8022 20.558 35.8022 22.514L35.8022 23.72C35.8022 24.2 35.6522 24.59 35.3522 24.89L34.7222 25.52L35.3522 26.15C35.6522 26.45 35.8022 26.84 35.8022 27.32L35.8022 29.066C35.8022 31.022 34.8242 32 32.8682 32L28.6562 32L27.5942 31.172Z" fill="#0000B6"/>
</svg>
