<svg width="53" height="53" viewBox="0 0 53 53" fill="none" xmlns="http://www.w3.org/2000/svg">
<path d="M46.75 26.5C46.75 37.6838 37.6838 46.75 26.5 46.75C15.3162 46.75 6.24999 37.6838 6.25 26.5C6.25 15.3162 15.3162 6.25 26.5 6.25C37.6838 6.25001 46.75 15.3162 46.75 26.5Z" stroke="#040457" stroke-width="0.5"/>
<path d="M52 26.5C52 40.5833 40.5833 52 26.5 52C12.4167 52 0.999993 40.5833 0.999995 26.5C0.999998 12.4167 12.4167 1 26.5 1C40.5833 1.00001 52 12.4167 52 26.5Z" stroke="#040457" stroke-width="2"/>
<path d="M18.1737 29.156L18.1737 22.424C18.1737 20.528 19.1217 19.58 21.0177 19.58L23.5737 19.58C25.4697 19.58 26.4177 20.528 26.4177 22.424L26.4177 29.156C26.4177 31.052 25.4697 32 23.5737 32L21.0177 32C19.1217 32 18.1737 31.052 18.1737 29.156ZM20.0097 29.336C20.0097 30.008 20.3517 30.344 21.0357 30.344L23.5557 30.344C24.2397 30.344 24.5817 30.008 24.5817 29.336L24.5817 22.244C24.5817 21.572 24.2397 21.236 23.5557 21.236L21.0357 21.236C20.3517 21.236 20.0097 21.572 20.0097 22.244L20.0097 29.336ZM28.4 31.28L28.4 30.344L33.962 30.344C34.646 30.344 34.988 30.008 34.988 29.336L34.988 27.194C34.988 26.51 34.646 26.168 33.962 26.168L28.58 26.168L28.58 19.58L36.284 19.58L36.284 21.236L30.416 21.236L30.416 24.512L33.98 24.512C35.876 24.512 36.824 25.46 36.824 27.356L36.824 29.156C36.824 31.052 35.876 32 33.98 32L29.336 32L28.4 31.28Z" fill="#0000B6"/>
</svg>
