<svg width="53" height="53" viewBox="0 0 53 53" fill="none" xmlns="http://www.w3.org/2000/svg">
<path d="M46.75 26.5C46.75 37.6838 37.6838 46.75 26.5 46.75C15.3162 46.75 6.24999 37.6838 6.25 26.5C6.25 15.3162 15.3162 6.25 26.5 6.25C37.6838 6.25001 46.75 15.3162 46.75 26.5Z" stroke="#333333" stroke-width="0.5"/>
<path d="M52.9 26.5C52.9 41.0803 41.0803 52.9 26.5 52.9C11.9197 52.9 0.0999928 41.0803 0.0999954 26.5C0.0999979 11.9197 11.9197 0.100002 26.5 0.100005C41.0803 0.100007 52.9 11.9197 52.9 26.5Z" stroke="#828282" stroke-width="0.2"/>
<path d="M18.1737 29.156L18.1737 22.424C18.1737 20.528 19.1217 19.58 21.0177 19.58L23.5737 19.58C25.4697 19.58 26.4177 20.528 26.4177 22.424L26.4177 29.156C26.4177 31.052 25.4697 32 23.5737 32L21.0177 32C19.1217 32 18.1737 31.052 18.1737 29.156ZM20.0097 29.336C20.0097 30.008 20.3517 30.344 21.0357 30.344L23.5557 30.344C24.2397 30.344 24.5817 30.008 24.5817 29.336L24.5817 22.244C24.5817 21.572 24.2397 21.236 23.5557 21.236L21.0357 21.236C20.3517 21.236 20.0097 21.572 20.0097 22.244L20.0097 29.336ZM28.58 24.242L28.58 22.424C28.58 20.528 29.528 19.58 31.424 19.58L33.98 19.58C35.876 19.58 36.824 20.528 36.824 22.424L36.824 28.598C36.824 30.866 35.684 32 33.404 32L30.056 32L29.12 31.28L29.12 30.344L33.476 30.344C34.484 30.344 34.988 29.84 34.988 28.832L34.988 27.068L31.424 27.068C29.528 27.068 28.58 26.126 28.58 24.242ZM30.416 24.386C30.416 25.07 30.758 25.412 31.442 25.412L34.988 25.412L34.988 22.244C34.988 21.572 34.646 21.236 33.962 21.236L31.442 21.236C30.758 21.236 30.416 21.572 30.416 22.244L30.416 24.386Z" fill="#4F4F4F"/>
</svg>
